<?xml version="1.0" encoding="UTF-8"?>
<svg width="20px" height="20px" viewBox="0 0 20 20" version="1.1" xmlns="http://www.w3.org/2000/svg" xmlns:xlink="http://www.w3.org/1999/xlink">
    <!-- Generator: Sketch 60.1 (88133) - https://sketch.com -->
    <title>Icon/20px/Apple Logo</title>
    <desc>Created with Sketch.</desc>
    <g id="Icon/20px/Apple-Logo" stroke="none" stroke-width="1" fill="none" fill-rule="evenodd">
        <path d="M10.1015021,5.59717165 C9.46949921,5.59717165 8.49119338,4.87859303 7.46094211,4.90456575 C6.10170303,4.9218809 4.85501242,5.69240496 4.15374894,6.91312285 C2.74256443,9.36321622 3.79013085,12.982082 5.16668507,14.973324 C5.84197582,15.9429722 6.6384726,17.0338265 7.6946966,16.9991962 C8.70763272,16.9559084 9.08856597,16.3412206 10.3179414,16.3412206 C11.5386593,16.3412206 11.8849623,16.9991962 12.9585014,16.9732235 C14.0493557,16.9559084 14.7419616,15.9862601 15.4085948,15.0079543 C16.1791188,13.8824697 16.4994491,12.7916154 16.5167642,12.7310124 C16.4907915,12.7223548 14.3956587,11.9172005 14.3696859,9.49307982 C14.3523708,7.46720757 16.0232825,6.49755931 16.1012007,6.45427145 C15.1488676,5.06040208 13.6857376,4.90456575 13.1749408,4.86993545 C11.8416744,4.76604457 10.7248474,5.59717165 10.1015021,5.59717165 L10.1015021,5.59717165 Z M12.3524713,3.55398425 C12.9152136,2.8786935 13.2874892,1.93501796 13.1835983,1 C12.378444,1.03463029 11.4087957,1.53676957 10.8287383,2.21206032 C10.3092839,2.80943291 9.85909003,3.77042359 9.98029606,4.68812641 C10.8720262,4.757387 11.789729,4.229275 12.3524713,3.55398425" id="Apple-Logo" fill="#333333"></path>
    </g>
</svg>