<?xml version="1.0" encoding="UTF-8"?>
<svg width="20px" height="20px" viewBox="0 0 20 20" version="1.1" xmlns="http://www.w3.org/2000/svg" xmlns:xlink="http://www.w3.org/1999/xlink">
    <!-- Generator: Sketch 60.1 (88133) - https://sketch.com -->
    <title>Icon/20px/Google Logo-mono</title>
    <desc>Created with Sketch.</desc>
    <g id="Icon/20px/Google-Logo-mono" stroke="none" stroke-width="1" fill="none" fill-rule="evenodd">
        <path d="M10.2,2.5 C12.2249713,2.5 13.9166794,3.24166986 15.2166411,4.45 L15.2166411,4.45 L13.0999809,6.51667943 C12.5582918,6.00831099 11.608311,5.39998085 10.2,5.39998085 C8.21667943,5.39998085 6.53335887,6.70833014 5.92497128,8.51666028 C5.77497128,8.98332057 5.68333972,9.48330142 5.68333972,10 C5.68333972,10.5166411 5.77497128,11.0166794 5.93330142,11.4833397 C6.53335887,13.2916699 8.21667943,14.5999617 10.2,14.5999617 C11.3166411,14.5999617 12.1666603,14.2916316 12.7999809,13.8499617 L12.7999809,13.8499617 L12.9927054,13.7056182 C13.8583702,13.0126662 14.2555534,12.0622175 14.3333014,11.4166411 L14.3333014,11.4166411 L10.2,11.4166411 L10.2,8.63333972 L17.2416699,8.63333972 C17.3499617,9.1 17.4,9.55 17.4,10.1666603 C17.4,12.4499809 16.5833014,14.3749904 15.1666603,15.6833397 C13.9249521,16.8333014 12.2249713,17.5 10.2,17.5 C7.26664113,17.5 4.73330142,15.816622 3.49998085,13.3666411 L3.49998085,13.3666411 L3.35406182,13.057947 C2.93625259,12.1209684 2.7,11.0874971 2.7,10 C2.7,8.79166986 2.99166986,7.64998085 3.49998085,6.63330142 L3.49998085,6.63330142 L3.62336258,6.39863059 C4.89715894,4.07647087 7.36126561,2.5 10.2,2.5 Z" id="google-logo" fill="#333333"></path>
    </g>
</svg>