<?xml version="1.0" encoding="UTF-8"?>
<svg width="20px" height="20px" viewBox="0 0 20 20" version="1.1" xmlns="http://www.w3.org/2000/svg" xmlns:xlink="http://www.w3.org/1999/xlink">
    <!-- Generator: Sketch 60.1 (88133) - https://sketch.com -->
    <title>Icon/20px/Google Logo</title>
    <desc>Created with Sketch.</desc>
    <g id="Icon/20px/Google-Logo" stroke="none" stroke-width="1" fill="none" fill-rule="evenodd">
        <g id="-g-Google" transform="translate(2.160514, 2.000000)" fill-rule="nonzero">
            <path d="M15.6779182,8.17668522 C15.6779182,7.51900158 15.6245511,7.03906531 15.5090551,6.54136043 L7.99893785,6.54136043 L7.99893785,9.5098211 L12.4072073,9.5098211 C12.3183643,10.2475248 11.838428,11.3584917 10.7718825,12.1050184 L10.7569324,12.2044001 L13.1314926,14.0439414 L13.2960054,14.060362 C14.8068887,12.6649747 15.6779182,10.6119038 15.6779182,8.17668522" id="Path" fill="#4285F4"></path>
            <path d="M7.99893785,15.9978757 C10.1586204,15.9978757 11.9716926,15.286825 13.2960054,14.060362 L10.7718825,12.1050184 C10.0964303,12.5760704 9.18986359,12.9049122 7.99893785,12.9049122 C5.88367679,12.9049122 4.08837324,11.5095862 3.44839695,9.58095681 L3.35459094,9.58892205 L0.885489466,11.4997828 L0.853199614,11.5895449 C2.16856689,14.2025109 4.87043715,15.9978757 7.99893785,15.9978757" id="Path" fill="#34A853"></path>
            <path d="M3.44839695,9.58095681 C3.27953388,9.08325193 3.18180653,8.54994856 3.18180653,7.99893785 C3.18180653,7.44786587 3.27953388,6.91462377 3.43951264,6.41691889 L3.43503985,6.31091994 L0.934996489,4.36936236 L0.853199614,4.40826949 C0.311073209,5.49258357 0,6.71022349 0,7.99893785 C0,9.28765221 0.311073209,10.5052309 0.853199614,11.5895449 L3.44839695,9.58095681" id="Path" fill="#FBBC05"></path>
            <path d="M7.99893785,3.09290221 C9.5009368,3.09290221 10.5141152,3.74170154 11.0918401,4.28388922 L13.3493113,2.07972384 C11.9628696,0.79100948 10.1586204,0 7.99893785,0 C4.87043715,0 2.16856689,1.79530355 0.853199614,4.40826949 L3.43951264,6.41691889 C4.08837324,4.4882895 5.88367679,3.09290221 7.99893785,3.09290221" id="Path" fill="#EB4335"></path>
        </g>
    </g>
</svg>