<?xml version="1.0" encoding="UTF-8"?>
<svg width="28px" height="28px" viewBox="0 0 28 28" version="1.1" xmlns="http://www.w3.org/2000/svg" xmlns:xlink="http://www.w3.org/1999/xlink">
    <!-- Generator: Sketch 59.1 (86144) - https://sketch.com -->
    <title>Icon/28px/ic_AddPhoto28px</title>
    <desc>Created with Sketch.</desc>
    <g id="Icon/28px/ic_AddPhoto28px" stroke="none" stroke-width="1" fill="none" fill-rule="evenodd">
        <path d="M19.4986,14.2439 C19.8606,14.2439 20.1536,14.5369 20.1536,14.8979 L20.1536,14.8979 L20.1536,17.4049 L22.6606,17.4049 C23.0216,17.4049 23.3146,17.6979 23.3146,18.0589 C23.3146,18.4209 23.0216,18.7139 22.6606,18.7139 L22.6606,18.7139 L20.1536,18.7139 L20.1536,21.2209 C20.1536,21.5829 19.8606,21.8759 19.4986,21.8759 C19.1376,21.8759 18.8446,21.5829 18.8446,21.2209 L18.8446,21.2209 L18.8446,18.7139 L16.3366,18.7139 C15.9746,18.7139 15.6816,18.4209 15.6816,18.0589 C15.6816,17.6979 15.9746,17.4049 16.3366,17.4049 L16.3366,17.4049 L18.8446,17.4049 L18.8446,14.8979 C18.8446,14.5369 19.1376,14.2439 19.4986,14.2439 Z M21.1304,6.125 C22.7124,6.125 24.0004,7.412 24.0004,8.994 L24.0004,8.994 L24.0004,13.383 C24.0004,13.63 23.8624,13.854 23.6444,13.965 C23.4254,14.077 23.1634,14.059 22.9644,13.915 L22.9644,13.915 L19.1554,11.184 C18.9174,11.013 18.5914,11.038 18.3834,11.247 L18.3834,11.247 L13.7174,15.914 C12.9974,16.632 11.7414,16.632 11.0214,15.914 L11.0214,15.914 L9.7714,14.664 C9.5454,14.438 9.1504,14.438 8.9254,14.664 L8.9254,14.664 L5.3704,18.218 C5.5604,18.866 6.1604,19.34 6.8694,19.34 L6.8694,19.34 L14.0004,19.34 C14.3614,19.34 14.6544,19.633 14.6544,19.995 C14.6544,20.356 14.3614,20.649 14.0004,20.649 L14.0004,20.649 L6.8694,20.649 C5.4344,20.649 4.2424,19.59 4.0324,18.214 C4.0034,18.124 3.9934,18.028 4.0044,17.935 C4.0014,17.884 4.0004,17.832 4.0004,17.78 L4.0004,17.78 L4.0004,8.994 C4.0004,7.412 5.2874,6.125 6.8694,6.125 L6.8694,6.125 Z M21.1304,7.433 L6.8694,7.433 C6.0084,7.433 5.3084,8.133 5.3084,8.994 L5.3084,8.994 L5.3084,16.43 L8.0004,13.739 C8.7204,13.019 9.9764,13.019 10.6964,13.739 L10.6964,13.739 L11.9464,14.988 C12.1724,15.214 12.5664,15.214 12.7914,14.988 L12.7914,14.988 L17.4584,10.322 C18.1214,9.659 19.1554,9.575 19.9174,10.12 L19.9174,10.12 L22.6914,12.11 L22.6914,8.994 C22.6914,8.133 21.9914,7.433 21.1304,7.433 L21.1304,7.433 Z M11.9937,9.6569 C12.5677,9.6569 13.0327,10.1229 13.0327,10.6959 C13.0327,11.2689 12.5677,11.7349 11.9937,11.7349 C11.4197,11.7349 10.9547,11.2689 10.9547,10.6959 C10.9547,10.1229 11.4197,9.6569 11.9937,9.6569 Z" id="icon" fill="#8E8E93"></path>
    </g>
</svg>