<?xml version="1.0" encoding="UTF-8"?>
<svg width="16px" height="16px" viewBox="0 0 16 16" version="1.1" xmlns="http://www.w3.org/2000/svg" xmlns:xlink="http://www.w3.org/1999/xlink">
    <!-- Generator: Sketch 59.1 (86144) - https://sketch.com -->
    <title>Icon/16px/ic_Close16px</title>
    <desc>Created with Sketch.</desc>
    <g id="Icon/16px/ic_Close16px" stroke="none" stroke-width="1" fill="none" fill-rule="evenodd">
        <path d="M8.8478,8.0005 L11.4238,5.4245 C11.6588,5.1905 11.6588,4.8105 11.4238,4.5765 C11.1898,4.3425 10.8098,4.3425 10.5758,4.5765 L7.9998,7.1515 L5.4238,4.5765 C5.1898,4.3425 4.8098,4.3425 4.5758,4.5765 C4.3408,4.8105 4.3408,5.1905 4.5758,5.4245 L7.1518,8.0005 L4.5758,10.5765 C4.3408,10.8105 4.3408,11.1905 4.5758,11.4245 C4.6928,11.5415 4.8468,11.6005 4.9998,11.6005 C5.1528,11.6005 5.3068,11.5415 5.4238,11.4245 L7.9998,8.8485 L10.5758,11.4245 C10.6928,11.5415 10.8468,11.6005 10.9998,11.6005 C11.1528,11.6005 11.3068,11.5415 11.4238,11.4245 C11.6588,11.1905 11.6588,10.8105 11.4238,10.5765 L8.8478,8.0005 Z" id="icon" fill="#8E8E93"></path>
    </g>
</svg>