<?xml version="1.0" encoding="UTF-8"?>
<svg width="16px" height="16px" viewBox="0 0 16 16" version="1.1" xmlns="http://www.w3.org/2000/svg" xmlns:xlink="http://www.w3.org/1999/xlink">
    <!-- Generator: Sketch 59.1 (86144) - https://sketch.com -->
    <title>Icon/16px/ic_Clip16px</title>
    <desc>Created with Sketch.</desc>
    <g id="Icon/16px/ic_Clip16px" stroke="none" stroke-width="1" fill="none" fill-rule="evenodd">
        <path d="M7.9719,9.8986 C8.1589,9.8986 8.3469,9.9546 8.5069,10.0666 L10.5049,11.4636 L10.4709,5.0576 C10.4709,4.7506 10.2199,4.5006 9.9119,4.5006 L6.0879,4.5006 C5.7809,4.5006 5.5309,4.7506 5.5309,5.0576 L5.5309,11.4276 L7.4279,10.0726 C7.5899,9.9576 7.7809,9.8986 7.9719,9.8986 L7.9719,9.8986 Z M10.5349,12.4996 C10.3459,12.4996 10.1589,12.4426 9.9979,12.3306 L7.9349,10.8866 L6.0109,12.3146 C5.7229,12.5176 5.3509,12.5446 5.0379,12.3846 C4.7249,12.2236 4.5309,11.9046 4.5309,11.5526 L4.5309,5.0576 C4.5309,4.1996 5.2289,3.5006 6.0879,3.5006 L9.9119,3.5006 C10.7719,3.5006 11.4709,4.1996 11.4709,5.0576 L11.4709,11.5636 C11.4709,11.9136 11.2779,12.2316 10.9679,12.3926 C10.8309,12.4636 10.6819,12.4996 10.5349,12.4996 L10.5349,12.4996 Z" id="icon" fill="#8E8E93"></path>
    </g>
</svg>