<?xml version="1.0" encoding="UTF-8"?>
<svg width="16px" height="16px" viewBox="0 0 16 16" version="1.1" xmlns="http://www.w3.org/2000/svg" xmlns:xlink="http://www.w3.org/1999/xlink">
    <!-- Generator: Sketch 59.1 (86144) - https://sketch.com -->
    <title>Icon/16px/ic_Comments16px</title>
    <desc>Created with Sketch.</desc>
    <g id="Icon/16px/ic_Comments16px" stroke="none" stroke-width="1" fill="none" fill-rule="evenodd">
        <path d="M10.8749,4.132 C11.7709,4.132 12.4999,4.854 12.4999,5.741 L12.4999,5.741 L12.4999,9.275 C12.4999,10.162 11.7709,10.883 10.8749,10.883 L10.8749,10.883 L10.3999,10.883 L10.1399,12.042 C10.1029,12.209 9.9819,12.345 9.8209,12.403 C9.7659,12.422 9.7089,12.432 9.6519,12.432 C9.5419,12.432 9.4339,12.396 9.3439,12.326 L9.3439,12.326 L7.4979,10.883 L5.1259,10.883 C4.2289,10.883 3.4999,10.162 3.4999,9.275 L3.4999,9.275 L3.4999,5.741 C3.4999,4.854 4.2289,4.132 5.1259,4.132 L5.1259,4.132 Z M10.8749,5.132 L5.1259,5.132 C4.7809,5.132 4.4999,5.405 4.4999,5.741 L4.4999,5.741 L4.4999,9.275 C4.4999,9.611 4.7809,9.883 5.1259,9.883 L5.1259,9.883 L7.6699,9.883 C7.7819,9.883 7.8899,9.921 7.9789,9.99 L7.9789,9.99 L9.3369,11.051 L9.5119,10.274 C9.5629,10.046 9.7659,9.883 9.9999,9.883 L9.9999,9.883 L10.8749,9.883 C11.2189,9.883 11.4999,9.611 11.4999,9.275 L11.4999,9.275 L11.4999,5.741 C11.4999,5.405 11.2189,5.132 10.8749,5.132 L10.8749,5.132 Z M7.8089,7.0045 C8.0849,7.0045 8.3089,7.2285 8.3089,7.5045 C8.3089,7.7805 8.0849,8.0045 7.8089,8.0045 L7.8089,8.0045 L6.0189,8.0045 C5.7429,8.0045 5.5189,7.7805 5.5189,7.5045 C5.5189,7.2285 5.7429,7.0045 6.0189,7.0045 L6.0189,7.0045 Z" id="icon" fill="#8E8E93"></path>
    </g>
</svg>