<?xml version="1.0" encoding="UTF-8"?>
<svg width="28px" height="28px" viewBox="0 0 28 28" version="1.1" xmlns="http://www.w3.org/2000/svg" xmlns:xlink="http://www.w3.org/1999/xlink">
    <!-- Generator: Sketch 59.1 (86144) - https://sketch.com -->
    <title>Icon/28px/ic_ClipFill28px</title>
    <desc>Created with Sketch.</desc>
    <g id="Icon/28px/ic_ClipFill28px" stroke="none" stroke-width="1" fill="none" fill-rule="evenodd">
        <path d="M19.9199,23.9986 C19.5839,23.9986 19.2499,23.8966 18.9619,23.6956 L18.9619,23.6956 L14.1419,20.3236 C14.0159,20.2346 13.8469,20.2366 13.7209,20.3256 L9.0519,23.6626 C8.5399,24.0296 7.8739,24.0776 7.3139,23.7896 C6.7539,23.5006 6.4059,22.9316 6.4059,22.3016 L6.4059,7.1256 C6.4059,5.4016 7.8089,3.9986 9.5319,3.9986 L18.4679,3.9986 C20.1909,3.9986 21.5939,5.4016 21.5939,7.1256 L21.5939,22.3246 C21.5939,22.9516 21.2489,23.5206 20.6939,23.8096 C20.4489,23.9366 20.1839,23.9986 19.9199,23.9986 L19.9199,23.9986 Z" id="icon" fill="#8E8E93"></path>
    </g>
</svg>