<?xml version="1.0" encoding="UTF-8"?>
<svg width="28px" height="28px" viewBox="0 0 28 28" version="1.1" xmlns="http://www.w3.org/2000/svg" xmlns:xlink="http://www.w3.org/1999/xlink">
    <!-- Generator: Sketch 59.1 (86144) - https://sketch.com -->
    <title>Icon/28px/ic_Comments28px</title>
    <desc>Created with Sketch.</desc>
    <g id="Icon/28px/ic_Comments28px" stroke="none" stroke-width="1" fill="none" fill-rule="evenodd">
        <path d="M20.72,4.69 C21.595133,4.69 22.4339926,5.03964894 23.0499816,5.66127199 C23.6659706,6.28289505 24.0080043,7.12490365 24.0001374,8 L24.0001374,8 L24.0001374,16.73 C23.994489,18.5375875 22.5275959,20.0000084 20.72,20 L20.72,20 L19.33,20 L19.33,22.65 C19.3311435,22.9157213 19.1679725,23.154508 18.92,23.25 C18.8427125,23.2898355 18.7569486,23.3104189 18.67,23.3100063 C18.4955931,23.3100063 18.3290396,23.2374651 18.21,23.11 L18.21,23.11 L15.1,20 L7.28,20 C5.48401271,20.0001336 4.02190228,18.5558537 3.99986261,16.76 L3.99986261,16.76 L3.99986261,8 C3.99199573,7.12490365 4.33402937,6.28289505 4.95001838,5.66127199 C5.5660074,5.03964894 6.40486704,4.69 7.28,4.69 L7.28,4.69 Z M20.72,6 L7.28,6 C6.1754305,6 5.28,6.8954305 5.28,8 L5.28,8 L5.28,16.7 C5.28,17.8045695 6.1754305,18.7 7.28,18.7 L7.28,18.7 L15.37,18.7 C15.5444069,18.7001203 15.7109604,18.7725349 15.83,18.9 L15.83,18.9 L18.07,21.07 L18.07,19.35 C18.0699586,18.9893619 18.3594033,18.6954642 18.72,18.69 L18.72,18.69 L20.72,18.69 C21.8245695,18.69 22.72,17.7945695 22.72,16.69 L22.72,16.69 L22.72,8 C22.72,6.8954305 21.8245695,6 20.72,6 L20.72,6 Z M15.17,13.36 C15.5289851,13.36 15.82,13.6510149 15.82,14.01 C15.82,14.3689851 15.5289851,14.66 15.17,14.66 L15.17,14.66 L9.33,14.66 C8.97101491,14.66 8.68,14.3689851 8.68,14.01 C8.68,13.6510149 8.97101491,13.36 9.33,13.36 L9.33,13.36 Z M18.67,10 C19.0322613,10.0053677 19.3246323,10.2977387 19.33,10.66 C19.3245358,11.0205967 19.0306381,11.3100414 18.67,11.31 L18.67,11.31 L9.33,11.31 C8.96936186,11.3100414 8.67546421,11.0205967 8.67,10.66 C8.67536771,10.2977387 8.96773874,10.0053677 9.33,10 L9.33,10 Z" id="icon" fill="#8E8E93"></path>
    </g>
</svg>