<?xml version="1.0" encoding="UTF-8"?>
<svg width="28px" height="28px" viewBox="0 0 28 28" version="1.1" xmlns="http://www.w3.org/2000/svg" xmlns:xlink="http://www.w3.org/1999/xlink">
    <!-- Generator: Sketch 59.1 (86144) - https://sketch.com -->
    <title>Icon/28px/ic_Clip28px</title>
    <desc>Created with Sketch.</desc>
    <g id="Icon/28px/ic_Clip28px" stroke="none" stroke-width="1" fill="none" fill-rule="evenodd">
        <path d="M19.7119,22.6246 C19.8749,22.7376 20.0289,22.6796 20.0889,22.6476 C20.1479,22.6176 20.2849,22.5246 20.2849,22.3246 L20.2849,7.1256 C20.2849,6.1226 19.4699,5.3086 18.4679,5.3086 L9.5319,5.3086 C8.5299,5.3086 7.7149,6.1226 7.7149,7.1256 L7.7149,22.3016 C7.7149,22.5026 7.8529,22.5956 7.9129,22.6256 C7.9719,22.6566 8.1279,22.7146 8.2919,22.5986 L12.9599,19.2616 C13.5369,18.8506 14.3129,18.8456 14.8929,19.2526 L19.7119,22.6246 Z M19.9199,23.9986 C19.5839,23.9986 19.2499,23.8966 18.9619,23.6956 L18.9619,23.6956 L14.1419,20.3236 C14.0159,20.2346 13.8469,20.2366 13.7209,20.3256 L9.0519,23.6626 C8.5399,24.0296 7.8739,24.0776 7.3139,23.7896 C6.7539,23.5006 6.4059,22.9316 6.4059,22.3016 L6.4059,7.1256 C6.4059,5.4016 7.8089,3.9986 9.5319,3.9986 L18.4679,3.9986 C20.1909,3.9986 21.5939,5.4016 21.5939,7.1256 L21.5939,22.3246 C21.5939,22.9516 21.2489,23.5206 20.6939,23.8096 C20.4489,23.9366 20.1839,23.9986 19.9199,23.9986 L19.9199,23.9986 Z" id="icon" fill="#8E8E93"></path>
    </g>
</svg>