<?xml version="1.0" encoding="UTF-8"?>
<svg width="28px" height="28px" viewBox="0 0 28 28" version="1.1" xmlns="http://www.w3.org/2000/svg" xmlns:xlink="http://www.w3.org/1999/xlink">
    <!-- Generator: Sketch 59.1 (86144) - https://sketch.com -->
    <title>Icon/28px/ic_Close28px</title>
    <desc>Created with Sketch.</desc>
    <g id="Icon/28px/ic_Close28px" stroke="none" stroke-width="1" fill="none" fill-rule="evenodd">
        <path d="M14.9887,14.0006 L22.2787,6.6936 C22.5507,6.4206 22.5507,5.9776 22.2777,5.7046 C22.0037,5.4316 21.5597,5.4306 21.2867,5.7056 L14.0007,13.0096 L6.7137,5.7056 C6.4407,5.4306 5.9977,5.4316 5.7227,5.7046 C5.4497,5.9776 5.4487,6.4206 5.7217,6.6936 L13.0117,14.0006 L5.7217,21.3066 C5.4487,21.5796 5.4497,22.0226 5.7227,22.2956 C5.8597,22.4326 6.0387,22.5006 6.2177,22.5006 C6.3967,22.5006 6.5767,22.4326 6.7137,22.2946 L14.0007,14.9906 L21.2867,22.2946 C21.4237,22.4326 21.6037,22.5006 21.7827,22.5006 C21.9617,22.5006 22.1407,22.4326 22.2777,22.2956 C22.5507,22.0226 22.5507,21.5796 22.2787,21.3066 L14.9887,14.0006 Z" id="icon" fill="#8E8E93"></path>
    </g>
</svg>