<?xml version="1.0" encoding="UTF-8"?>
<svg width="28px" height="28px" viewBox="0 0 28 28" version="1.1" xmlns="http://www.w3.org/2000/svg" xmlns:xlink="http://www.w3.org/1999/xlink">
    <!-- Generator: Sketch 59.1 (86144) - https://sketch.com -->
    <title>Icon/28px/ic_Date28px</title>
    <desc>Created with Sketch.</desc>
    <g id="Icon/28px/ic_Date28px" stroke="none" stroke-width="1" fill="none" fill-rule="evenodd">
        <path d="M18.67,4.4 C19.0345079,4.4 19.33,4.69549207 19.33,5.06 L19.33,5.06 L19.33,6.34 L19.87,6.34 C22.150936,6.34 24,8.18906398 24,10.47 L24,10.47 L24,19.47 C24,21.750936 22.150936,23.6 19.87,23.6 L19.87,23.6 L8.13,23.6 C5.84906398,23.6 4,21.750936 4,19.47 L4,19.47 L4,10.47 C4,8.18906398 5.84906398,6.34 8.13,6.34 L8.13,6.34 L8.69,6.34 L8.69,5.06 C8.69,4.69549207 8.98549207,4.4 9.35,4.4 C9.5241374,4.4 9.69100116,4.46983235 9.81319139,4.59390242 C9.93538161,4.7179725 10.002679,4.88588321 10,5.06 L10,5.06 L10,6.34 L13.35,6.34 L13.35,5.06 C13.35,4.70101491 13.6410149,4.41 14,4.41 C14.3589851,4.41 14.65,4.70101491 14.65,5.06 L14.65,5.06 L14.65,6.34 L18.02,6.34 L18.02,5.06 C18.017321,4.88588321 18.0846184,4.7179725 18.2068086,4.59390242 C18.3289988,4.46983235 18.4958626,4.4 18.67,4.4 Z M8.67,7.64 L8.13,7.64 C6.57094082,7.64550908 5.31,8.91093109 5.31,10.47 L5.31,10.47 L5.31,19.47 C5.31548564,21.0251651 6.5748349,22.2845144 8.13,22.29 L8.13,22.29 L19.87,22.29 C21.4251651,22.2845144 22.6845144,21.0251651 22.69,19.47 L22.69,19.47 L22.67,10.47 C22.6700097,8.91093109 21.4090592,7.64550908 19.85,7.64 L19.85,7.64 L19.31,7.64 L19.31,8.93 C19.3045358,9.29059674 19.0106381,9.5800414 18.65,9.58 C18.2910149,9.58 18,9.28898509 18,8.93 L18,8.93 L18,7.64 L14.67,7.64 L14.67,8.93 C14.67,9.28898509 14.3789851,9.58 14.02,9.58 C13.6610149,9.58 13.37,9.28898509 13.37,8.93 L13.37,8.93 L13.37,7.64 L10,7.64 L10,8.93 C10.0000833,9.10591256 9.92886277,9.27434732 9.8026036,9.39683756 C9.67634444,9.51932779 9.50582928,9.58541271 9.33,9.58 C8.96936186,9.5800414 8.67546421,9.29059674 8.67,8.93 L8.67,8.93 L8.67,7.64 Z M12.575427,17.3451198 L12.67,17.35 L15.33,17.35 C15.6606277,17.3909304 15.9089136,17.6718484 15.9089136,18.005 C15.9089136,18.3381516 15.6606277,18.6190696 15.33,18.66 L15.33,18.66 L12.67,18.66 C12.4166669,18.6913616 12.167963,18.5738249 12.0313633,18.3581822 C11.8947637,18.1425396 11.8947637,17.8674604 12.0313633,17.6518178 C12.167963,17.4361751 12.4166669,17.3186384 12.67,17.35 Z M10.7,17.35 C11.0306277,17.3909304 11.2789136,17.6718484 11.2789136,18.005 C11.2789136,18.3381516 11.0306277,18.6190696 10.7,18.66 L10.7,18.66 L8,18.66 C7.66937232,18.6190696 7.42108637,18.3381516 7.42108637,18.005 C7.42108637,17.6718484 7.66937232,17.3909304 8,17.35 L8,17.35 Z M12.575427,13.2151198 L12.67,13.22 L15.33,13.22 C15.6606277,13.2609304 15.9089136,13.5418484 15.9089136,13.875 C15.9089136,14.2081516 15.6606277,14.4890696 15.33,14.53 L15.33,14.53 L12.67,14.53 C12.4166669,14.5613616 12.167963,14.4438249 12.0313633,14.2281822 C11.8947637,14.0125396 11.8947637,13.7374604 12.0313633,13.5218178 C12.167963,13.3061751 12.4166669,13.1886384 12.67,13.22 Z M20,13.22 C20.3306277,13.2609304 20.5789136,13.5418484 20.5789136,13.875 C20.5789136,14.2081516 20.3306277,14.4890696 20,14.53 L20,14.53 L17.3,14.53 C16.9693723,14.4890696 16.7210864,14.2081516 16.7210864,13.875 C16.7210864,13.5418484 16.9693723,13.2609304 17.3,13.22 L17.3,13.22 Z M10.7,13.22 C11.0306277,13.2609304 11.2789136,13.5418484 11.2789136,13.875 C11.2789136,14.2081516 11.0306277,14.4890696 10.7,14.53 L10.7,14.53 L8,14.53 C7.66937232,14.4890696 7.42108637,14.2081516 7.42108637,13.875 C7.42108637,13.5418484 7.66937232,13.2609304 8,13.22 L8,13.22 Z" id="icon" fill="#8E8E93"></path>
    </g>
</svg>