<?xml version="1.0" encoding="UTF-8"?>
<svg width="28px" height="28px" viewBox="0 0 28 28" version="1.1" xmlns="http://www.w3.org/2000/svg" xmlns:xlink="http://www.w3.org/1999/xlink">
    <!-- Generator: Sketch 59.1 (86144) - https://sketch.com -->
    <title>Icon/28px/ic_Del28px</title>
    <desc>Created with Sketch.</desc>
    <g id="Icon/28px/ic_Del28px" stroke="none" stroke-width="1" fill="none" fill-rule="evenodd">
        <path d="M14.57,4 C16.188963,4.00339185 17.5795822,5.15107154 17.89,6.74 L17.89,6.74 L23.35,6.74 C23.5223907,6.74 23.6877208,6.80848195 23.8096194,6.93038059 C23.9315181,7.05227924 24,7.21760928 24,7.39 C24,7.75063814 23.7105967,8.04453579 23.35,8.05 L23.35,8.05 L21.19,8.05 L19.5,21.94 C19.3584653,23.1143366 18.3628338,23.9983887 17.18,24 L17.18,24 L11.12,24 C9.96030652,23.9939136 8.97688886,23.1461398 8.8,22 L8.8,22 L6.82,8.05 L4.65,8.05 C4.28940326,8.04453579 4,7.75063814 4,7.39 C4,7.21760928 4.06848195,7.05227924 4.19038059,6.93038059 C4.31227924,6.80848195 4.47760928,6.74 4.65,6.74 L4.65,6.74 L10.11,6.74 C10.4204178,5.15107154 11.811037,4.00339185 13.43,4 L13.43,4 Z M19.87,8.05 L8.15,8.05 L10.12,21.8 C10.1964849,22.298245 10.6162461,22.6718325 11.12,22.6900084 L11.12,22.6900084 L17.2,22.6900084 C17.7189652,22.6921057 18.153297,22.2968638 18.2,21.78 L18.2,21.78 L19.87,8.05 Z M11.66,12.18 C12.0206381,12.18 12.3145358,12.4694033 12.32,12.83 L12.32,12.83 L12.32,20.61 C12.3145358,20.9705967 12.0206381,21.26 11.66,21.26 C11.3010149,21.26 11.01,20.9689851 11.01,20.61 L11.01,20.61 L11.01,12.83 C11.01,12.4710149 11.3010149,12.18 11.66,12.18 Z M14,12.18 C14.3589851,12.18 14.65,12.4710149 14.65,12.83 L14.65,12.83 L14.65,20.61 C14.65,20.9689851 14.3589851,21.26 14,21.26 C13.6410149,21.26 13.35,20.9689851 13.35,20.61 L13.35,20.61 L13.35,12.83 C13.35,12.4710149 13.6410149,12.18 14,12.18 Z M16.34,12.179923 C16.6989851,12.179923 16.99,12.4710149 16.99,12.83 L16.99,12.83 L16.99,20.61 C16.9490696,20.9406277 16.6681516,21.1889136 16.335,21.1889136 C16.0018484,21.1889136 15.7209304,20.9406277 15.68,20.61 L15.68,20.61 L15.68,12.83 C15.6799794,12.6558626 15.7498323,12.4889988 15.8739024,12.3668086 C15.9979725,12.2446184 16.1658832,12.177321 16.34,12.179923 Z M14.57,5.31 L13.43,5.31 C12.5328275,5.30938382 11.7373865,5.88678511 11.46,6.74 L11.46,6.74 L16.57,6.74 C16.2892751,5.87616309 15.4782024,5.29624609 14.57,5.31 L14.57,5.31 Z" id="icon" fill="#8E8E93"></path>
    </g>
</svg>