<?xml version="1.0" encoding="UTF-8"?>
<svg width="20px" height="20px" viewBox="0 0 20 20" version="1.1" xmlns="http://www.w3.org/2000/svg" xmlns:xlink="http://www.w3.org/1999/xlink">
    <!-- Generator: Sketch 60.1 (88133) - https://sketch.com -->
    <title>Icon/20px/ic_ExMark20px</title>
    <desc>Created with Sketch.</desc>
    <g id="Icon/20px/ic_ExMark20px" stroke="none" stroke-width="1" fill="none" fill-rule="evenodd">
        <path d="M10.1809,14.2382 C10.5679,14.2382 10.8809,14.5522 10.8809,14.9382 L10.8809,15.3002 C10.8809,15.6872 10.5679,16.0002 10.1809,16.0002 L9.8189,16.0002 C9.4329,16.0002 9.1189,15.6872 9.1189,15.3002 L9.1189,14.9382 C9.1189,14.5522 9.4329,14.2382 9.8189,14.2382 L10.1809,14.2382 Z M10.1153,3.9997 C10.4993,3.9997 10.8083,4.2887 10.8023,4.6407 L10.6873,11.8547 C10.6827545,12.1683364 10.4294488,12.4257744 10.1009364,12.4699893 L10.0003,12.4767 C9.6253,12.4767 9.3193,12.1997 9.3133,11.8547 L9.1993,4.6407 C9.1933,4.2887 9.5023,3.9997 9.8863,3.9997 L10.1153,3.9997 Z" id="icon" fill="#8E8E93"></path>
    </g>
</svg>