<?xml version="1.0" encoding="UTF-8"?>
<svg width="20px" height="20px" viewBox="0 0 20 20" version="1.1" xmlns="http://www.w3.org/2000/svg" xmlns:xlink="http://www.w3.org/1999/xlink">
    <!-- Generator: Sketch 60.1 (88133) - https://sketch.com -->
    <title>Icon/20px/ic_Email-fill</title>
    <desc>Created with Sketch.</desc>
    <g id="Icon/20px/ic_Email-fill" stroke="none" stroke-width="1" fill="none" fill-rule="evenodd">
        <path d="M11.69515,10.84375 L15.82715,14.93475 C15.48715,15.12975 15.09815,15.24975 14.67715,15.24975 L14.67715,15.24975 L5.32215,15.24975 C4.90115,15.24975 4.51215,15.12975 4.17215,14.93475 L4.17215,14.93475 L8.30415,10.84375 C8.76515,11.28075 9.36115,11.52775 9.99915,11.52775 L9.99915,11.52775 C10.63815,11.52775 11.23415,11.28075 11.69515,10.84375 L11.69515,10.84375 Z M16.63485,5.83225 C16.86285,6.19125 16.99985,6.61525 16.99985,7.07225 L16.99985,7.07225 L16.99985,12.92825 C16.99985,13.35225 16.87685,13.74525 16.67885,14.08825 L16.67885,14.08825 L12.54185,9.99325 Z M3.36515,5.83105 L7.45715,9.99305 L3.32115,14.08805 C3.12215,13.74505 3.00015,13.35205 3.00015,12.92905 L3.00015,12.92905 L3.00015,7.07205 C3.00015,6.61505 3.13615,6.19105 3.36515,5.83105 L3.36515,5.83105 Z M14.67805,4.75025 C15.06505,4.75025 15.42605,4.85425 15.74705,5.02225 L15.74705,5.02225 L10.90305,9.94925 C10.66305,10.19325 10.34205,10.32725 10.00005,10.32725 L10.00005,10.32725 C9.65705,10.32725 9.33705,10.19325 9.09705,9.94925 L9.09705,9.94925 L4.25305,5.02225 C4.57405,4.85425 4.93405,4.75025 5.32205,4.75025 L5.32205,4.75025 Z" id="icon" fill="#333333"></path>
    </g>
</svg>