<?xml version="1.0" encoding="UTF-8"?>
<svg width="28px" height="28px" viewBox="0 0 28 28" version="1.1" xmlns="http://www.w3.org/2000/svg" xmlns:xlink="http://www.w3.org/1999/xlink">
    <!-- Generator: Sketch 59.1 (86144) - https://sketch.com -->
    <title>Icon/28px/ic_Edit28px</title>
    <desc>Created with Sketch.</desc>
    <g id="Icon/28px/ic_Edit28px" stroke="none" stroke-width="1" fill="none" fill-rule="evenodd">
        <path d="M22.0584,10.1131 L22.0064,10.1651 L17.8344,5.9931 L17.8874,5.9411 C18.7564,5.0701 20.1724,5.0701 21.0424,5.9411 L22.0584,6.9581 C22.9284,7.8271 22.9284,9.2441 22.0584,10.1131 L22.0584,10.1131 Z M5.6134,19.2781 L8.7214,22.3851 L5.3474,22.6531 L5.6134,19.2781 Z M7.6004,19.4411 L5.9934,17.8341 L16.9224,6.9051 L18.5524,8.5341 L7.6004,19.4411 Z M10.1654,22.0071 L8.5124,20.3531 L19.4634,9.4461 L21.0944,11.0771 L10.1654,22.0071 Z M22.9704,6.0461 L21.9544,5.0291 C20.5804,3.6571 18.3484,3.6571 16.9754,5.0291 L16.4684,5.5361 C16.4674,5.5371 16.4674,5.5371 16.4664,5.5371 L16.4654,5.5391 L4.6254,17.3791 C4.6174,17.3861 4.6144,17.3971 4.6074,17.4051 C4.5644,17.4531 4.5284,17.5061 4.5014,17.5641 C4.4964,17.5751 4.4884,17.5841 4.4844,17.5951 C4.4604,17.6551 4.4444,17.7171 4.4384,17.7841 L4.0024,23.3041 C3.9874,23.4931 4.0554,23.6781 4.1884,23.8111 C4.3104,23.9321 4.4744,24.0001 4.6444,24.0001 C4.6624,24.0001 4.6784,23.9991 4.6954,23.9981 L10.2164,23.5611 C10.2814,23.5551 10.3434,23.5401 10.4014,23.5171 C10.4114,23.5131 10.4194,23.5061 10.4294,23.5021 C10.4894,23.4741 10.5444,23.4371 10.5934,23.3921 C10.6014,23.3841 10.6134,23.3831 10.6204,23.3741 L22.9704,11.0251 C24.3434,9.6521 24.3434,7.4191 22.9704,6.0461 L22.9704,6.0461 Z" id="icon" fill="#8E8E93"></path>
    </g>
</svg>