<?xml version="1.0" encoding="UTF-8"?>
<svg width="28px" height="28px" viewBox="0 0 28 28" version="1.1" xmlns="http://www.w3.org/2000/svg" xmlns:xlink="http://www.w3.org/1999/xlink">
    <!-- Generator: Sketch 59.1 (86144) - https://sketch.com -->
    <title>Icon/28px/ic_Like28px</title>
    <desc>Created with Sketch.</desc>
    <g id="Icon/28px/ic_Like28px" stroke="none" stroke-width="1" fill="none" fill-rule="evenodd">
        <path d="M14.75,6.9 C16.8717571,4.79104872 20.2982429,4.79104872 22.42,6.9 C23.4385735,7.91835587 24.0108204,9.29967344 24.0108204,10.74 C24.0108204,12.1803266 23.4385735,13.5616441 22.42,14.58 L22.42,14.58 L14,23 L5.58,14.56 C3.47579058,12.4401109 3.48325938,9.01740135 5.59670046,6.90671574 C7.71014154,4.79603012 11.1328579,4.7930267 13.25,6.9 L13.25,6.9 L14,7.65 Z M6.50500004,7.82500004 C4.90061286,9.43214865 4.90285142,12.0356128 6.51,13.64 L14,21.13 L21.49,13.64 C22.5296429,12.6021435 22.9366226,11.0884816 22.5576339,9.6691962 C22.1786452,8.2499108 21.0712655,7.14062507 19.6526339,6.7591962 C18.2340024,6.37776734 16.7196429,6.78214346 15.68,7.82 L14,9.5 L12.32,7.82 C10.7128514,6.21561284 8.10938722,6.21785144 6.50500004,7.82500004 Z" id="icon" fill="#8E8E93"></path>
    </g>
</svg>