<?xml version="1.0" encoding="UTF-8"?>
<svg width="16px" height="16px" viewBox="0 0 16 16" version="1.1" xmlns="http://www.w3.org/2000/svg" xmlns:xlink="http://www.w3.org/1999/xlink">
    <!-- Generator: Sketch 59.1 (86144) - https://sketch.com -->
    <title>Icon/16px/ic_Like16px</title>
    <desc>Created with Sketch.</desc>
    <g id="Icon/16px/ic_Like16px" stroke="none" stroke-width="1" fill="none" fill-rule="evenodd">
        <path d="M6.0393,5.0577 C5.6283,5.0577 5.2423,5.2177 4.9513,5.5087 C4.6603,5.7997 4.5003,6.1857 4.5003,6.5967 C4.5003,7.0087 4.6603,7.3947 4.9513,7.6857 L7.9993,10.7347 L11.0493,7.6857 C11.3393,7.3947 11.4993,7.0087 11.4993,6.5967 C11.4993,6.1857 11.3393,5.7997 11.0493,5.5087 C10.4493,4.9097 9.4733,4.9097 8.8723,5.5087 L8.3533,6.0277 C8.1583,6.2227 7.8413,6.2227 7.6463,6.0277 L7.1273,5.5087 C6.8363,5.2177 6.4503,5.0577 6.0393,5.0577 M7.9993,11.9417 C7.8723,11.9417 7.7443,11.8927 7.6463,11.7947 L4.2443,8.3927 C3.7643,7.9127 3.5003,7.2757 3.5003,6.5967 C3.5003,5.9187 3.7643,5.2817 4.2443,4.8017 C5.2033,3.8427 6.8753,3.8427 7.8343,4.8017 L7.9993,4.9667 L8.1653,4.8017 C9.1543,3.8117 10.7663,3.8117 11.7563,4.8017 C12.2353,5.2817 12.4993,5.9187 12.4993,6.5967 C12.4993,7.2757 12.2353,7.9127 11.7563,8.3927 L8.3533,11.7947 C8.2553,11.8927 8.1273,11.9417 7.9993,11.9417" id="icon" fill="#8E8E93"></path>
    </g>
</svg>