<?xml version="1.0" encoding="UTF-8"?>
<svg width="16px" height="16px" viewBox="0 0 16 16" version="1.1" xmlns="http://www.w3.org/2000/svg" xmlns:xlink="http://www.w3.org/1999/xlink">
    <!-- Generator: Sketch 59.1 (86144) - https://sketch.com -->
    <title>Icon/16px/ic_LikeFill16px</title>
    <desc>Created with Sketch.</desc>
    <g id="Icon/16px/ic_LikeFill16px" stroke="none" stroke-width="1" fill="none" fill-rule="evenodd">
        <path d="M7.9993,11.9417 C7.8723,11.9417 7.7443,11.8927 7.6463,11.7947 L4.2443,8.3927 C3.7643,7.9127 3.5003,7.2757 3.5003,6.5967 C3.5003,5.9187 3.7643,5.2817 4.2443,4.8017 C5.2033,3.8427 6.8753,3.8427 7.8343,4.8017 L7.9993,4.9667 L8.1653,4.8017 C9.1543,3.8117 10.7663,3.8117 11.7563,4.8017 C12.2353,5.2817 12.4993,5.9187 12.4993,6.5967 C12.4993,7.2757 12.2353,7.9127 11.7563,8.3927 L8.3533,11.7947 C8.2553,11.8927 8.1273,11.9417 7.9993,11.9417" id="Path" fill="#8E8E93"></path>
    </g>
</svg>