<?xml version="1.0" encoding="UTF-8"?>
<svg width="28px" height="28px" viewBox="0 0 28 28" version="1.1" xmlns="http://www.w3.org/2000/svg" xmlns:xlink="http://www.w3.org/1999/xlink">
    <!-- Generator: Sketch 59.1 (86144) - https://sketch.com -->
    <title>Icon/28px/ic_Money28px</title>
    <desc>Created with Sketch.</desc>
    <g id="Icon/28px/ic_Money28px" stroke="none" stroke-width="1" fill="none" fill-rule="evenodd">
        <path d="M14,3.9996 C19.514,3.9996 24,8.4856 24,13.9996 C24,19.5146 19.514,23.9996 14,23.9996 C8.486,23.9996 4,19.5146 4,13.9996 C4,8.4856 8.486,3.9996 14,3.9996 Z M14,5.3086 C9.208,5.3086 5.309,9.2076 5.309,13.9996 C5.309,18.7916 9.208,22.6916 14,22.6916 C18.792,22.6916 22.691,18.7916 22.691,13.9996 C22.691,9.2076 18.792,5.3086 14,5.3086 Z M14.5447,7.6046 L14.5447,9.1156 C15.4797,9.1466 16.1177,9.3956 16.5707,9.6616 L16.1797,10.6886 C15.8537,10.5016 15.2147,10.1596 14.2187,10.1596 C13.0187,10.1596 12.5667,10.8756 12.5667,11.4986 C12.5667,12.3086 13.1427,12.7136 14.4987,13.2746 C16.1027,13.9286 16.9127,14.7386 16.9127,16.1246 C16.9127,17.3556 16.0557,18.5076 14.4517,18.7726 L14.4517,20.3926 L13.4707,20.3926 L13.4707,18.8196 C12.5667,18.8036 11.6327,18.5236 11.0877,18.1346 L11.4607,17.0906 C12.0217,17.4646 12.8317,17.7596 13.7037,17.7596 C14.8097,17.7596 15.5577,17.1216 15.5577,16.2336 C15.5577,15.3766 14.9497,14.8476 13.7967,14.3796 C12.2087,13.7576 11.2277,13.0406 11.2277,11.6856 C11.2277,10.3926 12.1467,9.4116 13.5797,9.1776 L13.5797,7.6046 L14.5447,7.6046 Z" id="icon" fill="#8E8E93"></path>
    </g>
</svg>