<?xml version="1.0" encoding="UTF-8"?>
<svg width="28px" height="28px" viewBox="0 0 28 28" version="1.1" xmlns="http://www.w3.org/2000/svg" xmlns:xlink="http://www.w3.org/1999/xlink">
    <!-- Generator: Sketch 59.1 (86144) - https://sketch.com -->
    <title>Icon/28px/ic_More28px</title>
    <desc>Created with Sketch.</desc>
    <g id="Icon/28px/ic_More28px" stroke="none" stroke-width="1" fill="none" fill-rule="evenodd">
        <path d="M14,12.6001 C14.773,12.6001 15.4,13.2261 15.4,14.0001 C15.4,14.7731 14.773,15.4001 14,15.4001 C13.227,15.4001 12.6,14.7731 12.6,14.0001 C12.6,13.2261 13.227,12.6001 14,12.6001 Z M21.6001,12.6001 C22.3731,12.6001 23.0001,13.2261 23.0001,14.0001 C23.0001,14.7731 22.3731,15.4001 21.6001,15.4001 C20.8271,15.4001 20.2001,14.7731 20.2001,14.0001 C20.2001,13.2261 20.8271,12.6001 21.6001,12.6001 Z M6.3999,12.6001 C7.1729,12.6001 7.7999,13.2261 7.7999,14.0001 C7.7999,14.7731 7.1729,15.4001 6.3999,15.4001 C5.6269,15.4001 4.9999,14.7731 4.9999,14.0001 C4.9999,13.2261 5.6269,12.6001 6.3999,12.6001 Z" id="icon" fill="#8E8E93"></path>
    </g>
</svg>