<?xml version="1.0" encoding="UTF-8"?>
<svg width="28px" height="28px" viewBox="0 0 28 28" version="1.1" xmlns="http://www.w3.org/2000/svg" xmlns:xlink="http://www.w3.org/1999/xlink">
    <!-- Generator: Sketch 59.1 (86144) - https://sketch.com -->
    <title>Icon/28px/ic_Moveto28px</title>
    <desc>Created with Sketch.</desc>
    <g id="Icon/28px/ic_Moveto28px" stroke="none" stroke-width="1" fill="none" fill-rule="evenodd">
        <path d="M22.7608531,10.1259401 L22.7608531,10.0658359 L22.7608531,9.89554054 L22.7608531,9.83543631 C22.7326589,9.76520029 22.6919203,9.70069762 22.6405917,9.64510624 L22.6405917,9.64510624 L17.0909677,4.15558651 C16.8284183,3.93432847 16.4401971,3.95086513 16.197414,4.19364831 C15.9546308,4.43643149 15.9380941,4.82465262 16.1593522,5.08720208 L20.5269263,9.44475881 L12.4228725,9.44475881 C8.32790156,9.45576685 5.01100805,12.7726604 5,16.8676313 L5,23.3488708 C5.0054737,23.710094 5.29988191,24 5.66114654,24 C6.02075525,24 6.3122757,23.7084795 6.3122757,23.3488708 L6.3122757,16.8676313 C6.31779084,13.495129 9.05037016,10.7625497 12.4228725,10.7570345 L20.5269263,10.7570345 L16.1593522,15.1246086 C15.9099682,15.3811956 15.9099682,15.7896198 16.1593522,16.0462068 C16.2804481,16.1742577 16.4489179,16.2468104 16.6251599,16.2468104 C16.801402,16.2468104 16.9698717,16.1742577 17.0909677,16.0462068 L22.5704701,10.5667044 L22.5704701,10.5667044 C22.6217612,10.50903 22.6655199,10.4450749 22.7006959,10.3763744 L22.7006959,10.3763744 L22.7006959,10.3763744 C22.7413768,10.2992431 22.7620432,10.2131331 22.7608531,10.1259401 L22.7608531,10.1259401 Z" id="icon" fill="#8E8E93"></path>
    </g>
</svg>