<?xml version="1.0" encoding="UTF-8"?>
<svg width="20px" height="20px" viewBox="0 0 20 20" version="1.1" xmlns="http://www.w3.org/2000/svg" xmlns:xlink="http://www.w3.org/1999/xlink">
    <!-- Generator: Sketch 59.1 (86144) - https://sketch.com -->
    <title>Icon/20px/ic_note-Btn</title>
    <desc>Created with Sketch.</desc>
    <g id="Icon/20px/ic_note-Btn" stroke="none" stroke-width="1" fill="none" fill-rule="evenodd">
        <path d="M12.2154,-0.0003 C13.4864,-0.0003 14.5214,1.0347 14.5214,2.3077 L14.5214,2.3077 L14.5214,14.3567 C14.5214,14.9717 14.2824,15.5497 13.8484,15.9847 L13.8484,15.9847 L10.5244,19.3227 C10.0894,19.7587 9.5094,19.9997 8.8904,19.9997 L8.8904,19.9997 L2.3064,19.9997 C1.0344,19.9997 0.0004,18.9647 0.0004,17.6937 L0.0004,17.6937 L0.0004,2.3077 C0.0004,1.0347 1.0344,-0.0003 2.3064,-0.0003 L2.3064,-0.0003 Z M12.2154,1.3087 L2.3064,1.3087 C1.7554,1.3087 1.3094,1.7567 1.3094,2.3077 L1.3094,2.3077 L1.3094,17.6937 C1.3094,18.2437 1.7554,18.6917 2.3064,18.6917 L2.3064,18.6917 L8.8904,18.6917 C8.9014,18.6917 8.9114,18.6857 8.9224,18.6847 L8.9224,18.6847 L8.9224,16.0177 C8.9224,15.1167 9.6554,14.3847 10.5554,14.3847 L10.5554,14.3847 L13.2074,14.3847 C13.2074,14.3747 13.2124,14.3657 13.2124,14.3567 L13.2124,14.3567 L13.2124,2.3077 C13.2124,1.7567 12.7654,1.3087 12.2154,1.3087 L12.2154,1.3087 Z M12.2924,15.6937 L10.5554,15.6937 C10.3764,15.6937 10.2314,15.8377 10.2314,16.0177 L10.2314,16.0177 L10.2314,17.7617 L12.2924,15.6937 Z M7.227,13.9951 C7.588,13.9951 7.881,14.2881 7.881,14.6491 C7.881,15.0111 7.588,15.3041 7.227,15.3041 L7.227,15.3041 L3.928,15.3041 C3.567,15.3041 3.274,15.0111 3.274,14.6491 C3.274,14.2881 3.567,13.9951 3.928,13.9951 L3.928,13.9951 Z M10.5249,10.8853 C10.8869,10.8853 11.1799,11.1783 11.1799,11.5403 C11.1799,11.9013 10.8869,12.1943 10.5249,12.1943 L10.5249,12.1943 L3.9599,12.1943 C3.5989,12.1943 3.3059,11.9013 3.3059,11.5403 C3.3059,11.1783 3.5989,10.8853 3.9599,10.8853 L3.9599,10.8853 Z M10.5249,7.775 C10.8869,7.775 11.1799,8.068 11.1799,8.43 C11.1799,8.791 10.8869,9.084 10.5249,9.084 L10.5249,9.084 L3.9599,9.084 C3.5989,9.084 3.3059,8.791 3.3059,8.43 C3.3059,8.068 3.5989,7.775 3.9599,7.775 L3.9599,7.775 Z M10.5249,4.6646 C10.8869,4.6646 11.1799,4.9576 11.1799,5.3206 C11.1799,5.6816 10.8869,5.9746 10.5249,5.9746 L10.5249,5.9746 L3.9599,5.9746 C3.5989,5.9746 3.3059,5.6816 3.3059,5.3206 C3.3059,4.9576 3.5989,4.6646 3.9599,4.6646 L3.9599,4.6646 Z" id="icon" fill="#8E8E93"></path>
    </g>
</svg>