<?xml version="1.0" encoding="UTF-8"?>
<svg width="12px" height="28px" viewBox="0 0 12 28" version="1.1" xmlns="http://www.w3.org/2000/svg" xmlns:xlink="http://www.w3.org/1999/xlink">
    <!-- Generator: Sketch 59.1 (86144) - https://sketch.com -->
    <title>Icon/28px/ic_NavBack28px</title>
    <desc>Created with Sketch.</desc>
    <g id="Icon/28px/ic_NavBack28px" stroke="none" stroke-width="1" fill="none" fill-rule="evenodd">
        <path d="M1.58,14 L10.46,5.12 C10.6261285,4.95565783 10.6919621,4.7151709 10.6327018,4.48912831 C10.5734416,4.26308573 10.3980906,4.08582873 10.1727018,4.02412831 C9.94731307,3.9624279 9.7061285,4.02565783 9.54,4.19 L0.19,13.54 C-0.0589514898,13.7961421 -0.0589514898,14.2038579 0.19,14.46 L9.54,23.81 C9.66192946,23.9321316 9.82742269,24.0007615 10,24.0007615 C10.1725773,24.0007615 10.3380705,23.9321316 10.46,23.81 C10.5852243,23.6876908 10.6558249,23.5200448 10.6558249,23.345 C10.6558249,23.1699552 10.5852243,23.0023092 10.46,22.88 L1.58,14 Z" id="icon" fill="#8E8E93"></path>
    </g>
</svg>