<?xml version="1.0" encoding="UTF-8"?>
<svg width="28px" height="28px" viewBox="0 0 28 28" version="1.1" xmlns="http://www.w3.org/2000/svg" xmlns:xlink="http://www.w3.org/1999/xlink">
    <!-- Generator: Sketch 59.1 (86144) - https://sketch.com -->
    <title>Icon/28px/ic_Note28px</title>
    <desc>Created with Sketch.</desc>
    <g id="Icon/28px/ic_Note28px" stroke="none" stroke-width="1" fill="none" fill-rule="evenodd">
        <path d="M19,3.99997813 C19.6171464,4.01035798 20.2042313,4.26833301 20.6292516,4.71592074 C21.0542719,5.16350848 21.2815559,5.76314315 21.26,6.38 L21.26,6.38 L21.26,18.38 C21.2603849,18.987493 21.0193701,19.5702452 20.59,20 L20.59,20 L17.26,23.32 C16.8313926,23.7583753 16.2430764,24.0038078 15.63,24.0000437 L15.63,24.0000437 L9.05,24.0000437 C7.77422223,24.0000437 6.73997813,22.9657778 6.73997813,21.69 L6.73997813,21.69 L6.73997813,6.31 C6.73732691,5.69653435 6.97984273,5.10742241 7.41363257,4.67363257 C7.84742241,4.23984273 8.43653435,3.99732691 9.05,3.99997813 L9.05,3.99997813 Z M19,5.31 L9.05,5.31 C8.49771525,5.31 8.05,5.75771525 8.05,6.31 L8.05,6.31 L8.05,21.69 C8.05,22.2422847 8.49771525,22.69 9.05,22.69 L9.05,22.69 L9.05,22.66 L15.66,22.66 L15.66,20 C15.6708876,19.1059543 16.3959042,18.3853856 17.29,18.38 L17.29,18.38 L20,18.38 L20,6.31 C20,5.75771525 19.5522847,5.31 19,5.31 L19,5.31 Z M19,19.67 L17.32,19.67 C17.1416628,19.6754066 16.9999181,19.8215809 17,20 L17,20 L17,21.76 L19,19.67 Z M14,18 C14.3605967,18.0054642 14.65,18.2993619 14.65,18.66 C14.65,19.0189851 14.3589851,19.31 14,19.31 L14,19.31 L10.7,19.31 C10.3393619,19.3100414 10.0454642,19.0205967 10.04,18.66 C10.0453677,18.2977387 10.3377387,18.0053677 10.7,18 L10.7,18 Z M17.26,14.88 C17.6245079,14.88 17.92,15.1754921 17.92,15.54 C17.92,15.7141374 17.8501677,15.8810012 17.7260976,16.0031914 C17.6020275,16.1253816 17.4341168,16.192679 17.26,16.19 L17.26,16.19 L10.7,16.19 C10.3393619,16.1900414 10.0454642,15.9005967 10.04,15.54 C10.0453677,15.1777387 10.3377387,14.8853677 10.7,14.88 L10.7,14.88 Z M17.26,11.77 C17.6245079,11.77 17.92,12.0654921 17.92,12.43 C17.92,12.6041374 17.8501677,12.7710012 17.7260976,12.8931914 C17.6020275,13.0153816 17.4341168,13.082679 17.26,13.08 L17.26,13.08 L10.7,13.08 C10.3393619,13.0800414 10.0454642,12.7905967 10.04,12.43 C10.0453677,12.0677387 10.3377387,11.7753677 10.7,11.77 L10.7,11.77 Z M17.26,8.7 C17.6189851,8.7 17.91,8.99101491 17.91,9.35 C17.91,9.70898509 17.6189851,10 17.26,10 L17.26,10 L10.7,10 C10.3410149,10 10.05,9.70898509 10.05,9.35 C10.05,8.99101491 10.3410149,8.7 10.7,8.7 L10.7,8.7 Z" id="icon" fill="#8E8E93"></path>
    </g>
</svg>