<?xml version="1.0" encoding="UTF-8"?>
<svg width="20px" height="20px" viewBox="0 0 20 20" version="1.1" xmlns="http://www.w3.org/2000/svg" xmlns:xlink="http://www.w3.org/1999/xlink">
    <!-- Generator: Sketch 59.1 (86144) - https://sketch.com -->
    <title>Icon/20px/ic_Openweb20px</title>
    <desc>Created with Sketch.</desc>
    <g id="Icon/20px/ic_Openweb20px" stroke="none" stroke-width="1" fill="none" fill-rule="evenodd">
        <path d="M10.1966,5.8985 C10.4966,5.8985 10.7386,6.1405 10.7386,6.4395 C10.7386,6.7385 10.4966,6.9805 10.1966,6.9805 L10.1966,6.9805 L5.1326,6.9805 L5.1326,14.8675 L13.0186,14.8675 L13.0186,9.8025 C13.0186,9.5035 13.2616,9.2615 13.5606,9.2615 C13.8596,9.2615 14.1026,9.5035 14.1026,9.8025 L14.1026,9.8025 L14.1026,15.4085 C14.1026,15.7065 13.8596,15.9495 13.5606,15.9495 L13.5606,15.9495 L4.5916,15.9495 C4.2916,15.9495 4.0496,15.7065 4.0496,15.4085 L4.0496,15.4085 L4.0496,6.4395 C4.0496,6.1405 4.2916,5.8985 4.5916,5.8985 L4.5916,5.8985 Z M15.4178,3.9499 C15.4268,3.9499 15.4338,3.9539 15.4428,3.9549 C15.5118,3.9569 15.5818,3.9699 15.6498,3.9959 C15.6648,4.0029 15.6788,4.0119 15.6938,4.0189 C15.7488,4.0459 15.7978,4.0789 15.8418,4.1189 C15.8608,4.1359 15.8748,4.1549 15.8918,4.1739 C15.9248,4.2119 15.9518,4.2529 15.9748,4.2979 C15.9858,4.3189 15.9968,4.3399 16.0058,4.3619 C16.0308,4.4319 16.0488,4.5029 16.0498,4.5789 L16.0498,4.5789 L16.0498,7.7539 C16.0498,8.1019 15.7668,8.3859 15.4178,8.3859 C15.0698,8.3859 14.7858,8.1019 14.7858,7.7539 L14.7858,7.7539 L14.7858,6.1069 L9.5228,11.3709 C9.3998,11.4949 9.2378,11.5569 9.0758,11.5569 C8.9148,11.5569 8.7528,11.4949 8.6298,11.3709 C8.3828,11.1249 8.3828,10.7249 8.6298,10.4769 L8.6298,10.4769 L13.8938,5.2129 L12.2478,5.2129 C11.8988,5.2129 11.6158,4.9309 11.6158,4.5809 C11.6158,4.2319 11.8988,3.9499 12.2478,3.9499 L12.2478,3.9499 Z" id="icon" fill="#8E8E93"></path>
    </g>
</svg>