<?xml version="1.0" encoding="UTF-8"?>
<svg width="16px" height="16px" viewBox="0 0 16 16" version="1.1" xmlns="http://www.w3.org/2000/svg" xmlns:xlink="http://www.w3.org/1999/xlink">
    <!-- Generator: Sketch 59.1 (86144) - https://sketch.com -->
    <title>Icon/16px/ic_Public16px</title>
    <desc>Created with Sketch.</desc>
    <g id="Icon/16px/ic_Public16px" stroke="none" stroke-width="1" fill="none" fill-rule="evenodd">
        <path d="M9.2746,11.3557 C9.7816,10.7197 10.2746,9.7477 10.3646,8.4007 L11.5596,8.4007 C11.4066,9.7577 10.5086,10.8847 9.2746,11.3557 L9.2746,11.3557 Z M4.4406,8.4007 L5.6346,8.4007 C5.7246,9.7477 6.2176,10.7197 6.7256,11.3557 C5.4906,10.8847 4.5936,9.7577 4.4406,8.4007 L4.4406,8.4007 Z M6.7256,4.6447 C6.2176,5.2807 5.7246,6.2527 5.6346,7.5997 L4.4406,7.5997 C4.5936,6.2427 5.4906,5.1157 6.7256,4.6447 L6.7256,4.6447 Z M8.3996,7.5997 L8.3996,4.8537 C8.8776,5.3547 9.4756,6.2487 9.5786,7.5997 L8.3996,7.5997 Z M8.3996,8.4007 L9.5786,8.4007 C9.4766,9.7607 8.8786,10.6537 8.3996,11.1517 L8.3996,8.4007 Z M7.5996,8.4007 L7.5996,11.1437 C7.1236,10.6437 6.5406,9.7467 6.4346,8.4007 L7.5996,8.4007 Z M7.5996,7.5997 L6.4336,7.5997 C6.5386,6.2457 7.1226,5.3457 7.5996,4.8487 L7.5996,7.5997 Z M11.5596,7.5997 L10.3646,7.5997 C10.2746,6.2527 9.7816,5.2807 9.2746,4.6447 C10.5086,5.1157 11.4066,6.2427 11.5596,7.5997 L11.5596,7.5997 Z M8.0036,3.5997 L8.0006,3.5997 L7.9996,3.5997 C7.9836,3.5997 7.9696,3.6037 7.9546,3.6047 C7.9506,3.6047 7.9466,3.6047 7.9416,3.6057 C5.5436,3.6367 3.6006,5.5937 3.6006,8.0007 C3.6006,10.4257 5.5736,12.3997 7.9996,12.4007 L7.9996,12.4007 C10.4256,12.4007 12.3996,10.4257 12.3996,8.0007 C12.3996,5.5757 10.4276,3.6027 8.0036,3.5997 L8.0036,3.5997 Z" id="icon" fill="#8E8E93"></path>
    </g>
</svg>