<?xml version="1.0" encoding="UTF-8"?>
<svg width="28px" height="28px" viewBox="0 0 28 28" version="1.1" xmlns="http://www.w3.org/2000/svg" xmlns:xlink="http://www.w3.org/1999/xlink">
    <!-- Generator: Sketch 59.1 (86144) - https://sketch.com -->
    <title>Icon/28px/ic_Place28px</title>
    <desc>Created with Sketch.</desc>
    <g id="Icon/28px/ic_Place28px" stroke="none" stroke-width="1" fill="none" fill-rule="evenodd">
        <path d="M14,4 C17.9433131,4 21.14,7.19668689 21.14,11.14 C21.14,14 17.51,20 15.35,23.27 C15.0530284,23.727 14.5450148,24.0027315 14,24.0027315 C13.4549852,24.0027315 12.9469716,23.727 12.65,23.27 C10.49,19.97 6.86,14.01 6.86,11.14 C6.86,7.19668689 10.0566869,4 14,4 Z M16.915,6.09107182 C15.1111917,5.04964261 12.8888083,5.04964261 11.085,6.09107182 C9.28119168,7.13250104 8.17,9.05714159 8.17,11.14 C8.17,13 10.26,17.23 13.75,22.56 C13.8083951,22.6396428 13.9012429,22.686697 14,22.686697 C14.0987571,22.686697 14.1916049,22.6396428 14.25,22.56 C17.74,17.23 19.83,13 19.83,11.14 C19.83,9.05714159 18.7188083,7.13250104 16.915,6.09107182 Z M14,7.24 C16.1516299,7.24549589 17.8945041,8.98837006 17.9,11.14 C17.9,13.2939105 16.1539105,15.04 14,15.04 C11.8460895,15.04 10.1,13.2939105 10.1,11.14 C10.1,8.98608948 11.8460895,7.24 14,7.24 Z M14,8.55 C12.5695825,8.55 11.41,9.7095825 11.41,11.14 C11.41,12.5704175 12.5695825,13.73 14,13.73 C15.4304175,13.73 16.59,12.5704175 16.59,11.14 C16.59,9.7095825 15.4304175,8.55 14,8.55 Z" id="icon" fill="#8E8E93"></path>
    </g>
</svg>