<?xml version="1.0" encoding="UTF-8"?>
<svg width="20px" height="20px" viewBox="0 0 20 20" version="1.1" xmlns="http://www.w3.org/2000/svg" xmlns:xlink="http://www.w3.org/1999/xlink">
    <!-- Generator: Sketch 59.1 (86144) - https://sketch.com -->
    <title>Icon/20px/ic_Place-Btn</title>
    <desc>Created with Sketch.</desc>
    <g id="Icon/20px/ic_Place-Btn" stroke="none" stroke-width="1" fill="none" fill-rule="evenodd">
        <path d="M7.1388,-0.0004 C11.0758,-0.0004 14.2778,3.2026 14.2778,7.1386 C14.2778,10.0076 10.6478,15.9736 8.4848,19.2736 C8.1858,19.7286 7.6828,19.9996 7.1388,19.9996 C6.5948,19.9996 6.0918,19.7286 5.7928,19.2736 C3.6298,15.9736 -0.0002,10.0076 -0.0002,7.1386 C-0.0002,3.2026 3.2028,-0.0004 7.1388,-0.0004 Z M7.1388,1.3086 C3.9238,1.3086 1.3088,3.9246 1.3088,7.1386 C1.3088,8.9586 3.3938,13.2276 6.8878,18.5566 C6.9648,18.6736 7.0788,18.6926 7.1388,18.6926 C7.1998,18.6926 7.3128,18.6736 7.3908,18.5566 C10.8838,13.2276 12.9688,8.9586 12.9688,7.1386 C12.9688,3.9246 10.3538,1.3086 7.1388,1.3086 Z M7.1388,3.2435 C9.2868,3.2435 11.0348,4.9915 11.0348,7.1395 C11.0348,9.2885 9.2868,11.0365 7.1388,11.0365 C4.9908,11.0365 3.2428,9.2885 3.2428,7.1395 C3.2428,4.9915 4.9908,3.2435 7.1388,3.2435 Z M7.1388,4.5515 C5.7118,4.5515 4.5518,5.7115 4.5518,7.1395 C4.5518,8.5665 5.7118,9.7275 7.1388,9.7275 C8.5658,9.7275 9.7268,8.5665 9.7268,7.1395 C9.7268,5.7115 8.5658,4.5515 7.1388,4.5515 Z" id="icon" fill="#8E8E93"></path>
    </g>
</svg>