<?xml version="1.0" encoding="UTF-8"?>
<svg width="28px" height="28px" viewBox="0 0 28 28" version="1.1" xmlns="http://www.w3.org/2000/svg" xmlns:xlink="http://www.w3.org/1999/xlink">
    <!-- Generator: Sketch 59.1 (86144) - https://sketch.com -->
    <title>Icon/28px/ic_Plus28px</title>
    <desc>Created with Sketch.</desc>
    <g id="Icon/28px/ic_Plus28px" stroke="none" stroke-width="1" fill="none" fill-rule="evenodd">
        <path d="M21.36,13.36 L14.64,13.36 L14.64,6.64 C14.64,6.28653778 14.3534622,6.00000004 14,6.00000004 C13.6465378,6.00000004 13.36,6.28653778 13.36,6.64 L13.36,13.36 L6.64,13.36 C6.41135001,13.36 6.20006871,13.4819833 6.08574371,13.68 C5.97141871,13.8780167 5.97141871,14.1219833 6.08574371,14.32 C6.20006871,14.5180167 6.41135001,14.64 6.64,14.64 L13.36,14.64 L13.36,21.36 C13.36,21.7134622 13.6465378,22 14,22 C14.3534622,22 14.64,21.7134622 14.64,21.36 L14.64,14.64 L21.36,14.64 C21.7134622,14.64 22,14.3534622 22,14 C22,13.6465378 21.7134622,13.36 21.36,13.36 Z" id="icon" fill="#8E8E93"></path>
    </g>
</svg>