<?xml version="1.0" encoding="UTF-8"?>
<svg width="20px" height="20px" viewBox="0 0 20 20" version="1.1" xmlns="http://www.w3.org/2000/svg" xmlns:xlink="http://www.w3.org/1999/xlink">
    <!-- Generator: Sketch 59.1 (86144) - https://sketch.com -->
    <title>Icon/20px/ic_Plus20px</title>
    <desc>Created with Sketch.</desc>
    <g id="Icon/20px/ic_Plus20px" stroke="none" stroke-width="1" fill="none" fill-rule="evenodd">
        <path d="M15.9999,9.4007 L10.5999,9.4007 L10.5999,4.0007 C10.5999,3.6697 10.3319,3.4007 9.9999,3.4007 C9.6679,3.4007 9.3999,3.6697 9.3999,4.0007 L9.3999,9.4007 L3.9999,9.4007 C3.6679,9.4007 3.3999,9.6697 3.3999,10.0007 C3.3999,10.3317 3.6679,10.5997 3.9999,10.5997 L9.3999,10.5997 L9.3999,16.0007 C9.3999,16.3317 9.6679,16.5997 9.9999,16.5997 C10.3319,16.5997 10.5999,16.3317 10.5999,16.0007 L10.5999,10.5997 L15.9999,10.5997 C16.3319,10.5997 16.5999,10.3317 16.5999,10.0007 C16.5999,9.6697 16.3319,9.4007 15.9999,9.4007" id="icon" fill="#8E8E93"></path>
    </g>
</svg>