<?xml version="1.0" encoding="UTF-8"?>
<svg width="16px" height="16px" viewBox="0 0 16 16" version="1.1" xmlns="http://www.w3.org/2000/svg" xmlns:xlink="http://www.w3.org/1999/xlink">
    <!-- Generator: Sketch 59.1 (86144) - https://sketch.com -->
    <title>Icon/16px/ic_Private16px</title>
    <desc>Created with Sketch.</desc>
    <g id="Icon/16px/ic_Private16px" stroke="none" stroke-width="1" fill="none" fill-rule="evenodd">
        <path d="M8,3.6 C9.512,3.6 10.743,4.83 10.743,6.343 L10.743,6.343 L10.743,6.845 C10.743,6.869 10.731,6.89 10.729,6.913 L10.729,6.913 L11.314,6.913 C11.535,6.913 11.714,7.093 11.714,7.314 L11.714,7.314 L11.714,12 C11.714,12.221 11.535,12.401 11.314,12.401 L11.314,12.401 L4.686,12.401 C4.465,12.401 4.286,12.221 4.286,12 L4.286,12 L4.286,7.314 C4.286,7.093 4.465,6.913 4.686,6.913 L4.686,6.913 L5.272,6.913 C5.27,6.89 5.257,6.869 5.257,6.845 L5.257,6.845 L5.257,6.343 C5.257,4.83 6.488,3.6 8,3.6 Z M10.914,7.714 L5.086,7.714 L5.086,11.6 L10.914,11.6 L10.914,7.714 Z M7.9996,8.428 C8.2206,8.428 8.3996,8.608 8.3996,8.828 L8.3996,8.828 L8.3996,10.486 C8.3996,10.706 8.2206,10.886 7.9996,10.886 C7.7786,10.886 7.5996,10.706 7.5996,10.486 L7.5996,10.486 L7.5996,8.828 C7.5996,8.608 7.7786,8.428 7.9996,8.428 Z M8,4.401 C6.929,4.401 6.057,5.272 6.057,6.343 L6.057,6.343 L6.057,6.845 L9.874,6.912 C9.912,6.912 9.943,6.882 9.943,6.845 L9.943,6.845 L9.943,6.343 C9.943,5.272 9.071,4.401 8,4.401 Z" id="icon" fill="#8E8E93"></path>
    </g>
</svg>