<?xml version="1.0" encoding="UTF-8"?>
<svg width="20px" height="20px" viewBox="0 0 20 20" version="1.1" xmlns="http://www.w3.org/2000/svg" xmlns:xlink="http://www.w3.org/1999/xlink">
    <!-- Generator: Sketch 59.1 (86144) - https://sketch.com -->
    <title>Icon/20px/ic_Place20px</title>
    <desc>Created with Sketch.</desc>
    <g id="Icon/20px/ic_Place20px" stroke="none" stroke-width="1" fill="none" fill-rule="evenodd">
        <path d="M9.9998,2.401 C13.0088,2.401 15.4568,4.848 15.4568,7.857 C15.4568,10.033 12.7268,14.523 11.0998,17.006 C10.8558,17.378 10.4448,17.6 9.9998,17.6 C9.5558,17.6 9.1448,17.378 8.9008,17.006 C7.2728,14.524 4.5428,10.035 4.5428,7.857 C4.5428,4.848 6.9918,2.401 9.9998,2.401 Z M9.9998,3.6 C7.6528,3.6 5.7428,5.51 5.7428,7.857 C5.7428,9.2 7.2988,12.374 9.9038,16.348 C9.9598,16.434 10.0398,16.434 10.0968,16.348 C12.7018,12.372 14.2568,9.199 14.2568,7.857 C14.2568,5.51 12.3468,3.6 9.9998,3.6 Z M10.0001,4.8299 C11.6701,4.8299 13.0291,6.1869 13.0291,7.8569 C13.0291,9.5269 11.6701,10.8849 10.0001,10.8849 C8.3301,10.8849 6.9721,9.5269 6.9721,7.8569 C6.9721,6.1869 8.3301,4.8299 10.0001,4.8299 Z M10.0001,6.0289 C8.9921,6.0289 8.1721,6.8489 8.1721,7.8569 C8.1721,8.8659 8.9921,9.6859 10.0001,9.6859 C11.0081,9.6859 11.8291,8.8659 11.8291,7.8569 C11.8291,6.8489 11.0081,6.0289 10.0001,6.0289 Z" id="icon" fill="#8E8E93"></path>
    </g>
</svg>