<?xml version="1.0" encoding="UTF-8"?>
<svg width="28px" height="28px" viewBox="0 0 28 28" version="1.1" xmlns="http://www.w3.org/2000/svg" xmlns:xlink="http://www.w3.org/1999/xlink">
    <!-- Generator: Sketch 59.1 (86144) - https://sketch.com -->
    <title>Icon/28px/ic_Private28px</title>
    <desc>Created with Sketch.</desc>
    <g id="Icon/28px/ic_Private28px" stroke="none" stroke-width="1" fill="none" fill-rule="evenodd">
        <path d="M13.9998,4 C17.3788,4 20.1278,6.748 20.1278,10.128 L20.1278,10.128 L20.1278,11.743 L20.4158,11.743 C21.5078,11.743 22.3968,12.631 22.3968,13.723 L22.3968,13.723 L22.3968,22.019 C22.3968,23.111 21.5078,24 20.4158,24 L20.4158,24 L7.5848,24 C6.4918,24 5.6038,23.111 5.6038,22.019 L5.6038,22.019 L5.6038,13.723 C5.6038,12.631 6.4918,11.743 7.5848,11.743 L7.5848,11.743 L7.8718,11.743 L7.8718,10.128 C7.8718,6.75 10.6208,4 13.9998,4 Z M20.4158,13.051 L7.5848,13.051 C7.2138,13.051 6.9118,13.352 6.9118,13.723 L6.9118,13.723 L6.9118,22.019 C6.9118,22.389 7.2138,22.691 7.5848,22.691 L7.5848,22.691 L20.4158,22.691 C20.7858,22.691 21.0878,22.389 21.0878,22.019 L21.0878,22.019 L21.0878,13.723 C21.0878,13.352 20.7858,13.051 20.4158,13.051 L20.4158,13.051 Z M13.9995,15.2798 C14.3605,15.2798 14.6535,15.5728 14.6535,15.9338 L14.6535,15.9338 L14.6535,19.8068 C14.6535,20.1688 14.3605,20.4618 13.9995,20.4618 C13.6385,20.4618 13.3455,20.1688 13.3455,19.8068 L13.3455,19.8068 L13.3455,15.9338 C13.3455,15.5728 13.6385,15.2798 13.9995,15.2798 Z M13.9998,5.309 C11.3428,5.31 9.1808,7.471 9.1808,10.128 L9.1808,10.128 L9.1808,11.741 L18.8188,11.741 L18.8188,10.128 C18.8188,7.47 16.6578,5.309 13.9998,5.309 Z" id="icon" fill="#8E8E93"></path>
    </g>
</svg>