<?xml version="1.0" encoding="UTF-8"?>
<svg width="16px" height="16px" viewBox="0 0 16 16" version="1.1" xmlns="http://www.w3.org/2000/svg" xmlns:xlink="http://www.w3.org/1999/xlink">
    <!-- Generator: Sketch 59.1 (86144) - https://sketch.com -->
    <title>Icon/16px/ic_Plus16px</title>
    <desc>Created with Sketch.</desc>
    <g id="Icon/16px/ic_Plus16px" stroke="none" stroke-width="1" fill="none" fill-rule="evenodd">
        <path d="M11.3988,7.4007 L8.5998,7.4007 L8.5998,4.5997 C8.5998,4.2687 8.3318,4.0007 7.9998,4.0007 C7.6688,4.0007 7.3998,4.2687 7.3998,4.5997 L7.3998,7.4007 L4.6018,7.4007 C4.2698,7.4007 4.0018,7.6697 4.0018,8.0007 C4.0018,8.3317 4.2698,8.5997 4.6018,8.5997 L7.3998,8.5997 L7.3998,11.3997 C7.3998,11.7307 7.6688,11.9997 7.9998,11.9997 C8.3318,11.9997 8.5998,11.7307 8.5998,11.3997 L8.5998,8.5997 L11.3988,8.5997 C11.7308,8.5997 11.9988,8.3317 11.9988,8.0007 C11.9988,7.6697 11.7308,7.4007 11.3988,7.4007" id="Fill-5" fill="#8E8E93"></path>
    </g>
</svg>