<?xml version="1.0" encoding="UTF-8"?>
<svg width="16px" height="16px" viewBox="0 0 16 16" version="1.1" xmlns="http://www.w3.org/2000/svg" xmlns:xlink="http://www.w3.org/1999/xlink">
    <!-- Generator: Sketch 59.1 (86144) - https://sketch.com -->
    <title>Icon/16px/ic_Qmark16px</title>
    <desc>Created with Sketch.</desc>
    <g id="Icon/16px/ic_Qmark16px" stroke="none" stroke-width="1" fill="none" fill-rule="evenodd">
        <path d="M8.0007,10.6584 C8.3557,10.6584 8.6437,10.9464 8.6437,11.3014 C8.6437,11.6564 8.3557,11.9444 8.0007,11.9444 C7.6457,11.9444 7.3577,11.6564 7.3577,11.3014 C7.3577,10.9464 7.6457,10.6584 8.0007,10.6584 Z M8.5168,4.0011 C9.3338,4.1891 9.9808,4.8361 10.1668,5.6531 C10.3698,6.5371 10.0298,7.4481 9.3028,7.9741 C8.8298,8.3161 8.5578,8.7961 8.5578,9.2941 L8.5578,9.5031 C8.5578,9.8121 8.3088,10.0621 7.9998,10.0621 C7.6908,10.0621 7.4418,9.8121 7.4418,9.5031 L7.4418,9.2941 C7.4418,8.4331 7.8818,7.6231 8.6488,7.0691 C9.0178,6.8021 9.1828,6.3551 9.0788,5.9011 C8.9888,5.5061 8.6628,5.1801 8.2688,5.0901 C7.9188,5.0091 7.5788,5.0851 7.3098,5.3011 C7.0438,5.5121 6.8908,5.8291 6.8908,6.1681 C6.8908,6.4761 6.6408,6.7261 6.3328,6.7261 C6.0238,6.7261 5.7738,6.4761 5.7738,6.1681 C5.7738,5.4871 6.0798,4.8531 6.6128,4.4281 C7.1468,4.0031 7.8418,3.8491 8.5168,4.0011 Z" id="icon" fill="#8E8E93"></path>
    </g>
</svg>