<?xml version="1.0" encoding="UTF-8"?>
<svg width="20px" height="20px" viewBox="0 0 20 20" version="1.1" xmlns="http://www.w3.org/2000/svg" xmlns:xlink="http://www.w3.org/1999/xlink">
    <!-- Generator: Sketch 59.1 (86144) - https://sketch.com -->
    <title>Icon/20px/ic_Search20px</title>
    <desc>Created with Sketch.</desc>
    <g id="Icon/20px/ic_Search20px" stroke="none" stroke-width="1" fill="none" fill-rule="evenodd">
        <path d="M8.7231,14.3309 C5.6311,14.3309 3.1161,11.8149 3.1161,8.7239 C3.1161,5.6309 5.6311,3.1149 8.7231,3.1149 C11.8151,3.1149 14.3301,5.6309 14.3301,8.7239 C14.3301,11.8149 11.8151,14.3309 8.7231,14.3309 M17.8371,17.0479 L13.8511,13.0609 C14.8441,11.8899 15.4471,10.3769 15.4471,8.7239 C15.4471,5.0169 12.4311,1.9999 8.7231,1.9999 C5.0151,1.9999 1.9991,5.0169 1.9991,8.7239 C1.9991,12.4309 5.0151,15.4459 8.7231,15.4459 C10.3761,15.4459 11.8901,14.8439 13.0621,13.8509 L17.0471,17.8369 C17.1561,17.9449 17.2991,17.9999 17.4421,17.9999 C17.5851,17.9999 17.7281,17.9449 17.8371,17.8369 C18.0551,17.6189 18.0551,17.2659 17.8371,17.0479" id="icon" fill="#8E8E93"></path>
    </g>
</svg>