<?xml version="1.0" encoding="UTF-8"?>
<svg width="28px" height="28px" viewBox="0 0 28 28" version="1.1" xmlns="http://www.w3.org/2000/svg" xmlns:xlink="http://www.w3.org/1999/xlink">
    <!-- Generator: Sketch 59.1 (86144) - https://sketch.com -->
    <title>Icon/28px/ic_Search28px</title>
    <desc>Created with Sketch.</desc>
    <g id="Icon/28px/ic_Search28px" stroke="none" stroke-width="1" fill="none" fill-rule="evenodd">
        <path d="M23.81,22.88 L18.81,17.88 C21.7480592,14.4476934 21.4492049,9.30727213 18.1331893,6.23856547 C14.8171736,3.16985881 9.66903694,3.26952669 6.47428181,6.46428181 C3.27952669,9.65903694 3.17985881,14.8071736 6.24856547,18.1231893 C9.31727213,21.4392049 14.4576934,21.7380592 17.89,18.8 L22.89,23.8 C23.1473546,24.0555002 23.5626454,24.0555002 23.82,23.8 C24.061034,23.5391542 24.056647,23.1355449 23.81,22.88 Z M5.3099929,12.4 C5.30595409,9.53145614 7.03080959,6.94311738 9.6798382,5.84256858 C12.3288668,4.74201979 15.380041,5.34613927 17.4098407,7.37307614 C19.4396405,9.40001302 20.0480659,12.4503315 18.9512572,15.1009108 C17.8544484,17.7514901 15.2685467,19.48 12.4,19.48 C8.49047904,19.4745091 5.32100889,16.3095093 5.3099929,12.4 Z" id="icon" fill="#8E8E93"></path>
    </g>
</svg>