<?xml version="1.0" encoding="UTF-8"?>
<svg width="28px" height="28px" viewBox="0 0 28 28" version="1.1" xmlns="http://www.w3.org/2000/svg" xmlns:xlink="http://www.w3.org/1999/xlink">
    <!-- Generator: Sketch 59.1 (86144) - https://sketch.com -->
    <title>Icon/28px/ic_Setting28px</title>
    <desc>Created with Sketch.</desc>
    <g id="Icon/28px/ic_Setting28px" stroke="none" stroke-width="1" fill="none" fill-rule="evenodd">
        <path d="M14.4697,4.0004 C15.8607,4.0004 16.9927,5.1324 16.9927,6.5224 L16.9927,6.5224 L16.9927,6.6374 C16.9927,7.0714 17.2237,7.4724 17.5957,7.6854 C18.0387,7.9434 18.5037,7.9444 18.8797,7.7274 L18.8797,7.7274 L18.9797,7.6694 C19.5637,7.3334 20.2427,7.2424 20.8927,7.4174 C21.5447,7.5924 22.0887,8.0094 22.4257,8.5924 L22.4257,8.5924 L22.8947,9.4074 C23.2317,9.9904 23.3217,10.6694 23.1467,11.3214 C22.9727,11.9724 22.5547,12.5164 21.9717,12.8534 L21.9717,12.8534 L21.8657,12.9154 C21.4957,13.1274 21.2667,13.5394 21.2677,13.9884 L21.2677,13.9884 L21.2677,14.0104 C21.2667,14.4674 21.4907,14.8684 21.8647,15.0854 L21.8647,15.0854 L21.9707,15.1464 C23.1767,15.8424 23.5907,17.3884 22.8947,18.5924 L22.8947,18.5924 L22.4257,19.4074 C21.7297,20.6104 20.1837,21.0254 18.9797,20.3304 L18.9797,20.3304 L18.8807,20.2734 C18.5047,20.0564 18.0397,20.0564 17.6687,20.2734 C17.2237,20.5274 16.9927,20.9284 16.9927,21.3634 L16.9927,21.3634 L16.9927,21.4774 C16.9927,22.8684 15.8607,24.0004 14.4697,24.0004 L14.4697,24.0004 L13.5297,24.0004 C12.1387,24.0004 11.0077,22.8684 11.0077,21.4774 L11.0077,21.4774 L11.0077,21.3634 C11.0077,20.9284 10.7767,20.5274 10.4047,20.3154 C9.9607,20.0564 9.4967,20.0564 9.1197,20.2724 L9.1197,20.2724 L9.0207,20.3304 C7.8167,21.0254 6.2697,20.6114 5.5747,19.4074 L5.5747,19.4074 L5.1047,18.5924 C4.7677,18.0094 4.6787,17.3304 4.8527,16.6784 C5.0277,16.0274 5.4447,15.4834 6.0287,15.1464 L6.0287,15.1464 L6.1357,15.0844 C6.5107,14.8684 6.7337,14.4674 6.7327,14.0124 C6.7337,13.5394 6.5047,13.1284 6.1357,12.9154 L6.1357,12.9154 L6.0267,12.8524 C5.4447,12.5164 5.0277,11.9724 4.8527,11.3214 C4.6787,10.6704 4.7677,9.9904 5.1057,9.4074 L5.1057,9.4074 L5.5747,8.5924 C5.9117,8.0094 6.4557,7.5924 7.1067,7.4174 C7.7587,7.2414 8.4377,7.3334 9.0207,7.6704 L9.0207,7.6704 L9.1197,7.7274 C9.4957,7.9434 9.9587,7.9434 10.3317,7.7264 C10.7767,7.4724 11.0077,7.0714 11.0077,6.6374 L11.0077,6.6374 L11.0077,6.5224 C11.0077,5.1324 12.1387,4.0004 13.5297,4.0004 L13.5297,4.0004 Z M14.4697,5.3084 L13.5297,5.3084 C12.8607,5.3084 12.3157,5.8534 12.3157,6.5224 L12.3157,6.5224 L12.3157,6.6374 C12.3157,7.5394 11.8317,8.3764 11.0527,8.8214 C10.2167,9.3104 9.2477,9.3114 8.4657,8.8604 L8.4657,8.8604 L8.3667,8.8034 C8.0857,8.6404 7.7567,8.5984 7.4457,8.6814 C7.1317,8.7654 6.8697,8.9664 6.7087,9.2474 L6.7087,9.2474 L6.2387,10.0614 C6.0757,10.3424 6.0327,10.6694 6.1167,10.9824 C6.1997,11.2954 6.4017,11.5574 6.6817,11.7194 L6.6817,11.7194 L6.7907,11.7834 C7.5637,12.2284 8.0427,13.0744 8.0407,13.9904 C8.0427,14.9244 7.5637,15.7714 6.7897,16.2184 L6.7897,16.2184 L6.6817,16.2804 C6.4017,16.4424 6.1997,16.7044 6.1167,17.0174 C6.0327,17.3304 6.0757,17.6574 6.2377,17.9384 L6.2377,17.9384 L6.7087,18.7524 C6.8697,19.0334 7.1317,19.2344 7.4457,19.3184 C7.7587,19.4004 8.0857,19.3594 8.3667,19.1974 L8.3667,19.1974 L8.4667,19.1404 C8.8557,18.9154 9.2907,18.8024 9.7267,18.8024 C10.1647,18.8024 10.6027,18.9164 10.9917,19.1444 C11.8317,19.6234 12.3157,20.4594 12.3157,21.3634 L12.3157,21.3634 L12.3157,21.4774 C12.3157,22.1464 12.8607,22.6914 13.5297,22.6914 L13.5297,22.6914 L14.4697,22.6914 C15.1397,22.6914 15.6837,22.1464 15.6837,21.4774 L15.6837,21.4774 L15.6837,21.3634 C15.6837,20.4594 16.1687,19.6234 16.9487,19.1784 C17.7837,18.6894 18.7527,18.6884 19.5337,19.1404 L19.5337,19.1404 L19.6327,19.1974 C20.2117,19.5314 20.9567,19.3334 21.2917,18.7524 L21.2917,18.7524 L21.7617,17.9384 C21.9247,17.6574 21.9677,17.3304 21.8837,17.0174 C21.7997,16.7044 21.5977,16.4424 21.3177,16.2794 L21.3177,16.2794 L21.2117,16.2194 C20.4377,15.7714 19.9577,14.9254 19.9587,14.0104 L19.9587,14.0104 L20.6137,14.0004 L19.9587,13.9894 C19.9577,13.0744 20.4377,12.2284 21.2107,11.7814 L21.2107,11.7814 L21.3177,11.7204 C21.5987,11.5574 21.7997,11.2964 21.8837,10.9824 C21.9677,10.6694 21.9247,10.3424 21.7617,10.0614 L21.7617,10.0614 L21.2917,9.2474 C21.1297,8.9664 20.8677,8.7654 20.5547,8.6814 C20.2407,8.5974 19.9137,8.6404 19.6337,8.8034 L19.6337,8.8034 L19.5337,8.8604 C18.7527,9.3124 17.7847,9.3104 17.0077,8.8554 C16.1687,8.3764 15.6837,7.5394 15.6837,6.6374 L15.6837,6.6374 L15.6837,6.5224 C15.6837,5.8534 15.1397,5.3084 14.4697,5.3084 L14.4697,5.3084 Z M14,10.0393 C16.184,10.0393 17.961,11.8163 17.961,14.0003 C17.961,16.1843 16.184,17.9613 14,17.9613 C11.816,17.9613 10.039,16.1843 10.039,14.0003 C10.039,11.8163 11.816,10.0393 14,10.0393 Z M14,11.3473 C12.538,11.3473 11.348,12.5373 11.348,14.0003 C11.348,15.4623 12.538,16.6523 14,16.6523 C15.462,16.6523 16.652,15.4623 16.652,14.0003 C16.652,12.5373 15.462,11.3473 14,11.3473 Z" id="icon" fill="#8E8E93"></path>
    </g>
</svg>