<?xml version="1.0" encoding="UTF-8"?>
<svg width="28px" height="28px" viewBox="0 0 28 28" version="1.1" xmlns="http://www.w3.org/2000/svg" xmlns:xlink="http://www.w3.org/1999/xlink">
    <!-- Generator: Sketch 59.1 (86144) - https://sketch.com -->
    <title>Icon/28px/ic_Share28px</title>
    <desc>Created with Sketch.</desc>
    <g id="Icon/28px/ic_Share28px" stroke="none" stroke-width="1" fill="none" fill-rule="evenodd">
        <path d="M19.75,11.19 C20.5526287,11.19 21.3218154,11.5114841 21.8855887,12.0827743 C22.4493619,12.6540645 22.7607017,13.4274427 22.75,14.23 L22.75,14.23 L22.75,21 C22.75,22.6568542 21.4068542,24 19.75,24 L19.75,24 L8.25,24 C6.59314575,24 5.25,22.6568542 5.25,21 L5.25,21 L5.25,14.19 C5.25,12.5331458 6.59314575,11.19 8.25,11.19 C8.60898509,11.19 8.9,11.4810149 8.9,11.84 C8.9000414,12.2006381 8.61059674,12.4945358 8.25,12.5 C7.79035907,12.4973198 7.34876784,12.6787264 7.0237471,13.0037471 C6.69872635,13.3287678 6.51731981,13.7703591 6.52,14.23 L6.52,14.23 L6.52,21 C6.51731981,21.4596409 6.69872635,21.9012322 7.0237471,22.2262529 C7.34876784,22.5512736 7.79035907,22.7326802 8.25,22.73 L8.25,22.73 L19.75,22.73 C20.2096409,22.7326802 20.6512322,22.5512736 20.9762529,22.2262529 C21.3012736,21.9012322 21.4826802,21.4596409 21.48,21 L21.48,21 L21.48,14.23 C21.4826802,13.7703591 21.3012736,13.3287678 20.9762529,13.0037471 C20.6512322,12.6787264 20.2096409,12.4973198 19.75,12.5 C19.3894033,12.4945358 19.0999586,12.2006381 19.1,11.84 C19.1,11.4810149 19.3910149,11.19 19.75,11.19 Z M13.915,3.99286678 L14,4 L14.0931413,4.01024704 C14.1545025,4.02152195 14.2140838,4.04160251 14.27,4.07 L14.27,4.07 L14.3380889,4.10221008 C14.382053,4.12637906 14.4230033,4.15584025 14.46,4.19 L14.46,4.19 L17.93,7.6 C18.1801814,7.85952361 18.1801814,8.27047639 17.93,8.53 C17.6726454,8.7855002 17.2573546,8.7855002 17,8.53 L17,8.53 L14.65,6.23 L14.65,16.16 C14.65,16.5189851 14.3589851,16.81 14,16.81 C13.6410149,16.81 13.35,16.5189851 13.35,16.16 L13.35,16.16 L13.35,6.23 L11.05,8.53 C10.9276908,8.65522432 10.7600448,8.72582492 10.585,8.72582492 C10.4099552,8.72582492 10.2423092,8.65522432 10.12,8.53 C9.86981863,8.27047639 9.86981863,7.85952361 10.12,7.6 L10.12,7.6 L13.58,4.13 C13.6323593,4.07247766 13.6974169,4.02796451 13.77,4 L13.77,4 L13.83,4 C13.8862676,3.99048904 13.9437324,3.99048904 14,4 Z" id="icon" fill="#8E8E93"></path>
    </g>
</svg>