<?xml version="1.0" encoding="UTF-8"?>
<svg width="28px" height="28px" viewBox="0 0 28 28" version="1.1" xmlns="http://www.w3.org/2000/svg" xmlns:xlink="http://www.w3.org/1999/xlink">
    <!-- Generator: Sketch 59.1 (86144) - https://sketch.com -->
    <title>Icon/28px/ic_SelectAll28px</title>
    <desc>Created with Sketch.</desc>
    <g id="Icon/28px/ic_SelectAll28px" stroke="none" stroke-width="1" fill="none" fill-rule="evenodd">
        <path d="M13.9995,4.0008 C16.6705,4.0008 19.1815,5.0408 21.0705,6.9288 C21.3255,7.1848 21.3255,7.5988 21.0705,7.8548 C20.8155,8.1098 20.4005,8.1098 20.1455,7.8548 C18.5035,6.2128 16.3215,5.3088 13.9995,5.3088 C9.2075,5.3088 5.3085,9.2088 5.3085,14.0008 C5.3085,18.7928 9.2075,22.6918 13.9995,22.6918 C16.3175,22.6918 18.4965,21.7908 20.1365,20.1548 C20.3925,19.8988 20.8075,19.8988 21.0615,20.1558 C21.3175,20.4108 21.3165,20.8258 21.0605,21.0798 C19.1735,22.9638 16.6665,24.0008 13.9995,24.0008 C8.4865,24.0008 3.9995,19.5148 3.9995,14.0008 C3.9995,8.4858 8.4865,4.0008 13.9995,4.0008 Z M22.8834,7.4956 C23.1394,7.2406 23.5534,7.2406 23.8084,7.4956 C24.0644,7.7516 24.0644,8.1656 23.8084,8.4216 L23.8084,8.4216 L14.4624,17.7666 C14.3344,17.8946 14.1674,17.9586 13.9994,17.9586 C13.8324,17.9586 13.6644,17.8946 13.5374,17.7666 L13.5374,17.7666 L8.8644,13.0946 C8.6084,12.8386 8.6084,12.4246 8.8644,12.1686 C9.1204,11.9136 9.5344,11.9136 9.7894,12.1686 L9.7894,12.1686 L13.9994,16.3786 Z" id="icon" fill="#8E8E93"></path>
    </g>
</svg>