<?xml version="1.0" encoding="UTF-8"?>
<svg width="28px" height="28px" viewBox="0 0 28 28" version="1.1" xmlns="http://www.w3.org/2000/svg" xmlns:xlink="http://www.w3.org/1999/xlink">
    <!-- Generator: Sketch 59.1 (86144) - https://sketch.com -->
    <title>Icon/28px/ic_Screenshot28px</title>
    <desc>Created with Sketch.</desc>
    <g id="Icon/28px/ic_Screenshot28px" stroke="none" stroke-width="1" fill="none" fill-rule="evenodd">
        <path d="M4.6546,18.0185 C5.0156,18.0185 5.3086,18.3115 5.3086,18.6725 L5.3086,22.6905 L9.3276,22.6905 C9.6886,22.6905 9.9816,22.9835 9.9816,23.3455 C9.9816,23.7065 9.6886,23.9995 9.3276,23.9995 L4.6546,23.9995 C4.2926,23.9995 3.9996,23.7065 3.9996,23.3455 L3.9996,18.6725 C3.9996,18.3115 4.2926,18.0185 4.6546,18.0185 Z M23.3457,18.0185 C23.7067,18.0185 23.9997,18.3115 23.9997,18.6725 L23.9997,23.3455 C23.9997,23.7065 23.7067,23.9995 23.3457,23.9995 L18.6727,23.9995 C18.3107,23.9995 18.0177,23.7065 18.0177,23.3455 C18.0177,22.9835 18.3107,22.6905 18.6727,22.6905 L22.6917,22.6905 L22.6917,18.6725 C22.6917,18.3115 22.9847,18.0185 23.3457,18.0185 Z M17.304,8.673 C17.665,8.673 17.958,8.966 17.958,9.328 L17.958,18.673 C17.958,19.035 17.665,19.328 17.304,19.328 L10.696,19.328 C10.335,19.328 10.042,19.035 10.042,18.673 L10.042,9.328 C10.042,8.966 10.335,8.673 10.696,8.673 L17.304,8.673 Z M16.65,9.982 L11.351,9.982 L11.351,18.019 L16.65,18.019 L16.65,9.982 Z M14.8261,15.6818 C15.1871,15.6818 15.4801,15.9748 15.4801,16.3368 C15.4801,16.6988 15.1871,16.9908 14.8261,16.9908 L13.1741,16.9908 C12.8131,16.9908 12.5201,16.6988 12.5201,16.3368 C12.5201,15.9748 12.8131,15.6818 13.1741,15.6818 L14.8261,15.6818 Z M9.3273,4 C9.6893,4 9.9823,4.293 9.9823,4.654 C9.9823,5.015 9.6893,5.308 9.3273,5.308 L5.3083,5.308 L5.3083,9.328 C5.3083,9.689 5.0153,9.982 4.6543,9.982 C4.2933,9.982 4.0003,9.689 4.0003,9.328 L4.0003,4.654 C4.0003,4.293 4.2933,4 4.6543,4 L9.3273,4 Z M23.3457,4 C23.7067,4 23.9997,4.293 23.9997,4.654 L23.9997,9.328 C23.9997,9.689 23.7067,9.982 23.3457,9.982 C22.9847,9.982 22.6917,9.689 22.6917,9.328 L22.6917,5.308 L18.6727,5.308 C18.3107,5.308 18.0177,5.015 18.0177,4.654 C18.0177,4.293 18.3107,4 18.6727,4 L23.3457,4 Z" id="icon" fill="#8E8E93"></path>
    </g>
</svg>