<?xml version="1.0" encoding="UTF-8"?>
<svg width="20px" height="20px" viewBox="0 0 20 20" version="1.1" xmlns="http://www.w3.org/2000/svg" xmlns:xlink="http://www.w3.org/1999/xlink">
    <!-- Generator: Sketch 59.1 (86144) - https://sketch.com -->
    <title>Icon/20px/ic_Searchweb-Btn</title>
    <desc>Created with Sketch.</desc>
    <g id="Icon/20px/ic_Searchweb-Btn" stroke="none" stroke-width="1" fill="none" fill-rule="evenodd">
        <path d="M13.6995,9.0466 C16.2655,9.0466 18.3535,11.1346 18.3535,13.7006 C18.3535,14.7386 17.9995,15.6886 17.4225,16.4636 L17.4225,16.4636 L19.8015,18.8426 C20.0655,19.1066 20.0655,19.5366 19.8015,19.8016 C19.6685,19.9346 19.4945,19.9996 19.3215,19.9996 C19.1475,19.9996 18.9745,19.9346 18.8425,19.8016 L18.8425,19.8016 L16.4635,17.4226 C15.6885,17.9996 14.7385,18.3536 13.6995,18.3536 C11.1345,18.3536 9.0465,16.2666 9.0465,13.7006 C9.0465,11.1346 11.1345,9.0466 13.6995,9.0466 Z M8.7884,-0.0007 L8.7904,0.0003 C13.5994,0.0023 17.5124,3.8863 17.5714,8.6813 C17.1344,8.3443 16.6574,8.0593 16.1404,7.8433 C15.7664,4.9213 13.7064,2.5213 10.9554,1.6803 C11.9854,2.8483 13.1064,4.7133 13.4174,7.3693 C12.9514,7.3903 12.4984,7.4603 12.0644,7.5753 C11.7454,4.8153 10.4304,3.0233 9.4664,2.0883 L9.4664,2.0883 L9.4664,8.1113 L10.6984,8.1113 C9.6014,8.7003 8.7004,9.6033 8.1104,10.6983 L8.1104,10.6983 L8.1104,9.4663 L5.4404,9.4663 C5.5924,11.9533 6.5494,13.6763 7.4534,14.7773 C7.6314,15.8183 8.0614,16.7703 8.6814,17.5713 C3.8854,17.5143 -0.0006,13.5993 -0.0006,8.7883 C-0.0006,3.9423 3.9424,-0.0007 8.7884,-0.0007 L8.7884,-0.0007 Z M13.6995,10.4026 C11.8815,10.4026 10.4025,11.8816 10.4025,13.7006 C10.4025,15.5186 11.8815,16.9976 13.6995,16.9976 C15.5185,16.9976 16.9975,15.5186 16.9975,13.7006 C16.9975,11.8816 15.5185,10.4026 13.6995,10.4026 Z M4.0844,9.4663 L1.3904,9.4663 C1.6674,12.5113 3.7854,15.0303 6.6204,15.8973 C5.4954,14.6223 4.2504,12.5283 4.0844,9.4663 L4.0844,9.4663 Z M6.6204,1.6803 C3.7854,2.5463 1.6674,5.0663 1.3904,8.1113 L1.3904,8.1113 L4.0844,8.1113 C4.2504,5.0493 5.4964,2.9543 6.6204,1.6803 Z M8.1104,2.0803 C7.0804,3.0693 5.6304,5.0013 5.4404,8.1113 L5.4404,8.1113 L8.1104,8.1113 Z" id="icon" fill="#8E8E93"></path>
    </g>
</svg>