<?xml version="1.0" encoding="UTF-8"?>
<svg width="28px" height="28px" viewBox="0 0 28 28" version="1.1" xmlns="http://www.w3.org/2000/svg" xmlns:xlink="http://www.w3.org/1999/xlink">
    <!-- Generator: Sketch 59.1 (86144) - https://sketch.com -->
    <title>Icon/28px/ic_TIme28px</title>
    <desc>Created with Sketch.</desc>
    <g id="Icon/28px/ic_TIme28px" stroke="none" stroke-width="1" fill="none" fill-rule="evenodd">
        <path d="M14,3.9999 C19.514,3.9999 24,8.4849 24,13.9999 C24,19.5139 19.514,23.9999 14,23.9999 C8.486,23.9999 4,19.5139 4,13.9999 C4,8.4849 8.486,3.9999 14,3.9999 Z M14,5.3079 C9.208,5.3079 5.309,9.2079 5.309,13.9999 C5.309,18.7919 9.208,22.6909 14,22.6909 C18.792,22.6909 22.691,18.7919 22.691,13.9999 C22.691,9.2079 18.792,5.3079 14,5.3079 Z M14.0003,6.7381 C14.3613,6.7381 14.6543,7.0311 14.6543,7.3921 L14.6543,7.3921 L14.6543,13.7281 L17.7673,16.8411 C18.0223,17.0971 18.0223,17.5111 17.7673,17.7671 C17.6393,17.8951 17.4713,17.9581 17.3043,17.9581 C17.1363,17.9581 16.9693,17.8951 16.8423,17.7671 L16.8423,17.7671 L13.5373,14.4621 C13.4143,14.3391 13.3453,14.1731 13.3453,13.9991 L13.3453,13.9991 L13.3453,7.3921 C13.3453,7.0311 13.6383,6.7381 14.0003,6.7381 Z" id="icon" fill="#8E8E93"></path>
    </g>
</svg>