<?xml version="1.0" encoding="UTF-8"?>
<svg width="20px" height="20px" viewBox="0 0 20 20" version="1.1" xmlns="http://www.w3.org/2000/svg" xmlns:xlink="http://www.w3.org/1999/xlink">
    <!-- Generator: Sketch 59.1 (86144) - https://sketch.com -->
    <title>Icon/20px/ic_TypingCancel20px</title>
    <desc>Created with Sketch.</desc>
    <g id="Icon/20px/ic_TypingCancel20px" stroke="none" stroke-width="1" fill="none" fill-rule="evenodd">
        <path d="M10.0004,4.0004 C6.6864,4.0004 4.0004,6.6854 4.0004,10.0004 C4.0004,13.3134 6.6864,16.0004 10.0004,16.0004 C13.3134,16.0004 16.0004,13.3134 16.0004,10.0004 C16.0004,6.6854 13.3134,4.0004 10.0004,4.0004 L10.0004,4.0004 Z" id="icon-Bg-Oval" fill="#8E8E93"></path>
        <path d="M12.4244,11.5764 C12.6584,11.8094 12.6584,12.1904 12.4244,12.4244 C12.3074,12.5414 12.1534,12.5994 12.0004,12.5994 C11.8464,12.5994 11.6934,12.5414 11.5754,12.4244 L10.0004,10.8484 L8.4244,12.4244 C8.3074,12.5414 8.1534,12.5994 8.0004,12.5994 C7.8464,12.5994 7.6934,12.5414 7.5754,12.4244 C7.3414,12.1904 7.3414,11.8094 7.5754,11.5764 L9.1524,10.0004 L7.5754,8.4244 C7.3414,8.1904 7.3414,7.8094 7.5754,7.5764 C7.8104,7.3424 8.1904,7.3424 8.4244,7.5764 L10.0004,9.1514 L11.5754,7.5764 C11.8104,7.3424 12.1904,7.3424 12.4244,7.5764 C12.6584,7.8094 12.6584,8.1904 12.4244,8.4244 L10.8484,10.0004 L12.4244,11.5764 Z" id="ic_cancel-X" fill="#FFFFFF"></path>
    </g>
</svg>