<?xml version="1.0" encoding="UTF-8"?>
<svg width="28px" height="28px" viewBox="0 0 28 28" version="1.1" xmlns="http://www.w3.org/2000/svg" xmlns:xlink="http://www.w3.org/1999/xlink">
    <!-- Generator: Sketch 59.1 (86144) - https://sketch.com -->
    <title>Icon/28px/ic_URL28px</title>
    <desc>Created with Sketch.</desc>
    <g id="Icon/28px/ic_URL28px" stroke="none" stroke-width="1" fill="none" fill-rule="evenodd">
        <path d="M9.5323,12.2012 C11.2593,10.4742 14.0703,10.4742 15.7983,12.2012 C16.0533,12.4572 16.0543,12.8712 15.7983,13.1272 C15.5433,13.3822 15.1293,13.3822 14.8733,13.1272 C13.6553,11.9092 11.6753,11.9092 10.4583,13.1272 L10.4583,13.1272 L6.2203,17.3652 C5.6333,17.9522 5.3103,18.7352 5.3103,19.5722 C5.3103,20.4092 5.6333,21.1932 6.2203,21.7802 C7.4383,22.9982 9.4193,22.9982 10.6353,21.7802 L10.6353,21.7802 L12.8803,19.5342 C13.1353,19.2782 13.5503,19.2782 13.8053,19.5342 C14.0613,19.7902 14.0613,20.2042 13.8053,20.4602 L13.8053,20.4602 L11.5603,22.7052 C10.6963,23.5682 9.5623,24.0002 8.4273,24.0002 C7.2933,24.0002 6.1583,23.5682 5.2953,22.7052 C4.4613,21.8712 4.0023,20.7592 4.0023,19.5722 C4.0023,18.3872 4.4613,17.2742 5.2953,16.4402 L5.2953,16.4402 Z M16.439,5.2949 C18.166,3.5689 20.977,3.5669 22.705,5.2949 C23.538,6.1289 23.998,7.2409 23.998,8.4279 C23.998,9.6129 23.538,10.7259 22.705,11.5599 L22.705,11.5599 L18.467,15.7989 C17.603,16.6619 16.469,17.0939 15.334,17.0939 C14.2,17.0939 13.065,16.6619 12.202,15.7989 C11.946,15.5429 11.946,15.1289 12.202,14.8729 C12.457,14.6179 12.872,14.6179 13.127,14.8729 C14.344,16.0909 16.325,16.0909 17.542,14.8729 L17.542,14.8729 L21.78,10.6349 C22.367,10.0479 22.69,9.2649 22.69,8.4279 C22.69,7.5909 22.367,6.8069 21.78,6.2199 C20.562,5.0029 18.582,5.0039 17.365,6.2199 L17.365,6.2199 L15.12,8.4659 C14.864,8.7219 14.45,8.7219 14.194,8.4659 C13.939,8.2099 13.939,7.7959 14.194,7.5399 L14.194,7.5399 Z" id="icon" fill="#8E8E93"></path>
    </g>
</svg>