<?xml version="1.0" encoding="UTF-8"?>
<svg width="28px" height="28px" viewBox="0 0 28 28" version="1.1" xmlns="http://www.w3.org/2000/svg" xmlns:xlink="http://www.w3.org/1999/xlink">
    <!-- Generator: Sketch 59.1 (86144) - https://sketch.com -->
    <title>Icon/28px/ic_Web28px</title>
    <desc>Created with Sketch.</desc>
    <g id="Icon/28px/ic_Web28px" stroke="none" stroke-width="1" fill="none" fill-rule="evenodd">
        <path d="M16.114,22.419 C17.473,20.993 19.123,18.481 19.298,14.653 L22.657,14.653 C22.374,18.423 19.681,21.523 16.114,22.419 L16.114,22.419 Z M5.342,14.653 L8.701,14.653 C8.877,18.481 10.527,20.993 11.885,22.419 C8.319,21.523 5.625,18.423 5.342,14.653 L5.342,14.653 Z M11.886,5.579 C10.528,7.004 8.877,9.516 8.701,13.345 L5.342,13.345 C5.625,9.574 8.32,6.476 11.886,5.579 L11.886,5.579 Z M14.654,13.345 L14.654,5.974 C15.871,7.071 17.777,9.428 17.978,13.345 L14.654,13.345 Z M14.654,22.025 L14.654,14.653 L17.979,14.653 C17.778,18.571 15.871,20.929 14.654,22.025 L14.654,22.025 Z M13.345,14.653 L13.345,22.022 C12.127,20.926 10.208,18.581 10.01,14.653 L13.345,14.653 Z M13.345,5.978 L13.345,13.345 L10.01,13.345 C10.209,9.418 12.128,7.073 13.345,5.978 L13.345,5.978 Z M22.657,13.345 L19.298,13.345 C19.122,9.516 17.472,7.004 16.113,5.579 C19.68,6.476 22.374,9.574 22.657,13.345 L22.657,13.345 Z M23.999,13.999 C23.999,8.486 19.516,4.002 14.004,4 L14.002,4 L14,4 C8.486,4 4,8.485 4,13.999 C4,19.511 8.483,23.995 13.994,23.998 C13.995,23.998 13.997,24 13.998,24 C13.999,24 13.999,23.999 13.999,23.999 L14,24 C14.001,24 14.002,23.998 14.004,23.998 C19.515,23.996 23.999,19.512 23.999,13.999 L23.999,13.999 Z" id="icon" fill="#8E8E93"></path>
    </g>
</svg>