<?xml version="1.0" encoding="UTF-8"?>
<svg width="48px" height="32px" viewBox="0 0 48 32" version="1.1" xmlns="http://www.w3.org/2000/svg" xmlns:xlink="http://www.w3.org/1999/xlink">
    <!-- Generator: Sketch 59.1 (86144) - https://sketch.com -->
    <title>Icon/Tab Icon/Tabic_Discover-Disabled</title>
    <desc>Created with Sketch.</desc>
    <g id="Icon/Tab-Icon/Tabic_Discover-Disabled" stroke="none" stroke-width="1" fill="none" fill-rule="evenodd">
        <path d="M35.81,26.87 L29.61,20.67 C33.1969562,16.5759552 32.8901055,10.3747594 28.9164944,6.65483036 C24.9428832,2.93490131 18.7349434,3.03722192 14.8860826,6.88608265 C11.0372219,10.7349434 10.9349013,16.9428832 14.6548304,20.9164944 C18.3747594,24.8901055 24.5759552,25.1969562 28.67,21.61 L34.87,27.81 C35.1328937,28.0614313 35.5471063,28.0614313 35.81,27.81 C36.0614313,27.5471063 36.0614313,27.1328937 35.81,26.87 Z M13.32,14.05 C13.32,10.5140905 15.4505186,7.3265385 18.7176606,5.97434059 C21.9848026,4.62214268 25.7448158,5.37173465 28.2436498,7.87343102 C30.7424838,10.3751274 31.4877708,14.1359962 30.1318335,17.4015881 C28.7758962,20.66718 25.5859072,22.7940457 22.05,22.7900058 C17.226937,22.7844816 13.32,18.8730662 13.32,14.05 Z" id="ic_tab_discover" fill="#999999"></path>
    </g>
</svg>