<?xml version="1.0" encoding="UTF-8"?>
<svg width="48px" height="32px" viewBox="0 0 48 32" version="1.1" xmlns="http://www.w3.org/2000/svg" xmlns:xlink="http://www.w3.org/1999/xlink">
    <!-- Generator: Sketch 59.1 (86144) - https://sketch.com -->
    <title>Icon/Tab Icon/Tabic_AddCard-Disabled</title>
    <desc>Created with Sketch.</desc>
    <g id="Icon/Tab-Icon/Tabic_AddCard-Disabled" stroke="none" stroke-width="1" fill="none" fill-rule="evenodd">
        <path d="M24,4 C30.627417,4 36,9.372583 36,16 C36,22.627417 30.627417,28 24,28 C17.372583,28 12,22.627417 12,16 C12,9.372583 17.372583,4 24,4 Z M24,5.32 C18.1015989,5.32 13.32,10.1015989 13.32,16 C13.32,21.8984011 18.1015989,26.68 24,26.68 C29.8961161,26.674487 34.674487,21.8961161 34.68,16 C34.68,10.1015989 29.8984011,5.32 24,5.32 Z M24,9.68 C24.3645079,9.68 24.66,9.97549207 24.66,10.34 L24.66,10.34 L24.66,15.34 L29.66,15.34 C30.0245079,15.34 30.32,15.6354921 30.32,16 C30.32,16.3645079 30.0245079,16.66 29.66,16.66 L29.66,16.66 L24.66,16.66 L24.66,21.66 C24.66,22.0245079 24.3645079,22.32 24,22.32 C23.6354921,22.32 23.34,22.0245079 23.34,21.66 L23.34,21.66 L23.34,16.66 L18.34,16.66 C17.9754921,16.66 17.68,16.3645079 17.68,16 C17.68,15.6354921 17.9754921,15.34 18.34,15.34 L18.34,15.34 L23.34,15.34 L23.34,10.34 C23.34,9.97549207 23.6354921,9.68 24,9.68 Z" id="ic_tab_AddCard" fill="#999999"></path>
    </g>
</svg>