<?xml version="1.0" encoding="UTF-8"?>
<svg width="48px" height="32px" viewBox="0 0 48 32" version="1.1" xmlns="http://www.w3.org/2000/svg" xmlns:xlink="http://www.w3.org/1999/xlink">
    <!-- Generator: Sketch 59.1 (86144) - https://sketch.com -->
    <title>Icon/Tab Icon/Tabic_Colletcion-Disabled</title>
    <desc>Created with Sketch.</desc>
    <g id="Icon/Tab-Icon/Tabic_Colletcion-Disabled" stroke="none" stroke-width="1" fill="none" fill-rule="evenodd">
        <path d="M19.43,17.23 C21.2723517,17.2354914 22.7645086,18.7276483 22.77,20.57 L22.77,20.57 L22.77,24.65 C22.77,26.4962557 21.2762475,27.9944888 19.43,28 L19.43,28 L15.35,28 C13.4998461,28 12,26.5001539 12,24.65 L12,24.65 L12,20.57 C12.0055112,18.7237525 13.5037443,17.23 15.35,17.23 L15.35,17.23 Z M32.65,17.23 C34.4962557,17.23 35.9944888,18.7237525 36,20.57 L36,20.57 L36,24.65 C36,26.5001539 34.5001539,28 32.65,28 L32.65,28 L28.57,28 C26.7237525,27.9944888 25.23,26.4962557 25.23,24.65 L25.23,24.65 L25.23,20.57 C25.2354914,18.7276483 26.7276483,17.2354914 28.57,17.23 L28.57,17.23 Z M19.43,18.57 L15.35,18.57 C14.2454305,18.57 13.35,19.4654305 13.35,20.57 L13.35,20.57 L13.35,24.65 C13.35,25.7545695 14.2454305,26.65 15.35,26.65 L15.35,26.65 L19.43,26.65 C20.5345695,26.65 21.43,25.7545695 21.43,24.65 L21.43,24.65 L21.43,20.57 C21.43,19.4654305 20.5345695,18.57 19.43,18.57 L19.43,18.57 Z M32.65,18.57 L28.57,18.57 C27.4654305,18.57 26.57,19.4654305 26.57,20.57 L26.57,20.57 L26.57,24.65 C26.57,25.7545695 27.4654305,26.65 28.57,26.65 L28.57,26.65 L32.65,26.65 C33.7545695,26.65 34.65,25.7545695 34.65,24.65 L34.65,24.65 L34.65,20.57 C34.65,19.4654305 33.7545695,18.57 32.65,18.57 L32.65,18.57 Z M19.43,4 C21.2762475,4.00551121 22.77,5.50374431 22.77,7.35 L22.77,7.35 L22.77,11.43 C22.7645086,13.2723517 21.2723517,14.7645086 19.43,14.77 L19.43,14.77 L15.35,14.77 C13.5037443,14.77 12.0055112,13.2762475 12,11.43 L12,11.43 L12,7.35 C12,5.49984609 13.4998461,4 15.35,4 L15.35,4 Z M32.65,4 C34.5001539,4 36,5.49984609 36,7.35 L36,7.35 L36,11.43 C35.9944888,13.2762475 34.4962557,14.77 32.65,14.77 L32.65,14.77 L28.57,14.77 C26.7276483,14.7645086 25.2354914,13.2723517 25.23,11.43 L25.23,11.43 L25.23,7.35 C25.23,5.50374431 26.7237525,4.00551121 28.57,4 L28.57,4 Z M19.43,5.35 L15.35,5.35 C14.2454305,5.35 13.35,6.2454305 13.35,7.35 L13.35,7.35 L13.35,11.43 C13.35,12.5345695 14.2454305,13.43 15.35,13.43 L15.35,13.43 L19.43,13.43 C20.5345695,13.43 21.43,12.5345695 21.43,11.43 L21.43,11.43 L21.43,7.35 C21.43,6.2454305 20.5345695,5.35 19.43,5.35 L19.43,5.35 Z M32.65,5.35 L28.57,5.35 C27.4654305,5.35 26.57,6.2454305 26.57,7.35 L26.57,7.35 L26.57,11.43 C26.57,12.5345695 27.4654305,13.43 28.57,13.43 L28.57,13.43 L32.65,13.43 C33.7545695,13.43 34.65,12.5345695 34.65,11.43 L34.65,11.43 L34.65,7.35 C34.65,6.2454305 33.7545695,5.35 32.65,5.35 L32.65,5.35 Z" id="ic_tab_colletcion" fill="#999999"></path>
    </g>
</svg>