<?xml version="1.0" encoding="UTF-8"?>
<svg width="48px" height="32px" viewBox="0 0 48 32" version="1.1" xmlns="http://www.w3.org/2000/svg" xmlns:xlink="http://www.w3.org/1999/xlink">
    <!-- Generator: Sketch 59.1 (86144) - https://sketch.com -->
    <title>Icon/Tab Icon/Tabic_Noti-Disabled</title>
    <desc>Created with Sketch.</desc>
    <g id="Icon/Tab-Icon/Tabic_Noti-Disabled" stroke="none" stroke-width="1" fill="none" fill-rule="evenodd">
        <path d="M34.68,22.27 L34.22,21.81 C33.4163682,21.1008751 32.9693763,20.0713283 33,19 C33.92,13.6 33.2,9.53 30.88,6.92 C29.0846361,5.04846996 26.6034448,3.9904097 24.01,3.9904097 C21.4165552,3.9904097 18.9353639,5.04846996 17.14,6.92 C14.81,9.54 14.09,13.61 15,19 C15.0235075,20.0670588 14.5775061,21.0906685 13.78,21.8 L13.31,22.26 C12.877508,22.6906481 12.7467917,23.3393095 12.9787358,23.9038527 C13.2106799,24.4683959 13.7596704,24.837798 14.37,24.84 L19,24.84 C19.42,26.62 21.49,27.99 24,27.99 C26.51,27.99 28.56,26.62 29,24.84 L33.64,24.84 C34.2503296,24.837798 34.7993201,24.4683959 35.0312642,23.9038527 C35.2632083,23.3393095 35.132492,22.6906481 34.7,22.26 L34.68,22.27 Z M24,26.68 C22.555559,26.7879223 21.1712722,26.0822831 20.41,24.85 L27.59,24.85 C26.8287278,26.0822831 25.444441,26.7879223 24,26.68 L24,26.68 Z M33.79,23.41 C33.7612835,23.4780848 33.6938734,23.5217031 33.62,23.5200481 L14.38,23.5200481 C14.3061266,23.5217031 14.2387165,23.4780848 14.21,23.41 C14.1695551,23.3494676 14.1695551,23.2705324 14.21,23.21 L14.68,22.74 C15.8048439,21.7488723 16.3944914,20.2840247 16.27,18.79 C15.43,13.79 16.03,10.12 18.07,7.79 C19.5786379,6.19647074 21.675617,5.29260044 23.87,5.29 L24,5.29 C26.2137155,5.27345303 28.3353227,6.17495508 29.86,7.78 C31.86,10.08 32.5,13.78 31.66,18.78 C31.5355086,20.2740247 32.1251561,21.7388723 33.25,22.73 L33.72,23.2 C33.7887047,23.2456842 33.8175533,23.3322299 33.79,23.41 L33.79,23.41 Z" id="ic_tab_noti" fill="#999999"></path>
    </g>
</svg>